<?xml version="1.0" encoding="UTF-8" standalone="no"?>
<!-- Created with Inkscape (http://www.inkscape.org/) -->

<svg
   xmlns:dc="http://purl.org/dc/elements/1.1/"
   xmlns:cc="http://creativecommons.org/ns#"
   xmlns:rdf="http://www.w3.org/1999/02/22-rdf-syntax-ns#"
   xmlns:svg="http://www.w3.org/2000/svg"
   xmlns="http://www.w3.org/2000/svg"
   xmlns:sodipodi="http://sodipodi.sourceforge.net/DTD/sodipodi-0.dtd"
   xmlns:inkscape="http://www.inkscape.org/namespaces/inkscape"
   sodipodi:docname="candle.svg"
   inkscape:version="0.48.5 r10040"
   version="1.1"
   id="svg2"
   height="2125.9841"
   width="3543.3069">
  <sodipodi:namedview
     id="base"
     pagecolor="#ffffff"
     bordercolor="#666666"
     borderopacity="1.0"
     inkscape:pageopacity="0.0"
     inkscape:pageshadow="2"
     inkscape:zoom="0.35000001"
     inkscape:cx="1062.4033"
     inkscape:cy="1831.9405"
     inkscape:document-units="mm"
     inkscape:current-layer="layer1"
     showgrid="false"
     units="mm"
     inkscape:window-width="1515"
     inkscape:window-height="878"
     inkscape:window-x="-8"
     inkscape:window-y="-8"
     inkscape:window-maximized="1" />
  <defs
     id="defs4">
    <pattern
       patternUnits="userSpaceOnUse"
       patternTransform="translate(806.61188,1228.4688)"
       height="570.72601"
       width="296.9747"
       id="Voronoi6268">
      <path
         id="path19737"
         d="M 101.384741,0.000000 113.410905,13.501812"
         style="stroke:#000000" />
      <path
         id="path19739"
         d="M 113.410905,13.501812 142.809546,0.000000"
         style="stroke:#000000" />
      <path
         id="path19741"
         d="M 44.367398,3.027515 59.395348,0.000000"
         style="stroke:#000000" />
      <path
         id="path19743"
         d="M 44.256893,5.223228 44.367398,3.027515"
         style="stroke:#000000" />
      <path
         id="path19745"
         d="M 147.878568,0.000000 157.440260,35.616435"
         style="stroke:#000000" />
      <path
         id="path19747"
         d="M 44.256893,5.223228 50.057097,24.056138"
         style="stroke:#000000" />
      <path
         id="path19749"
         d="M 50.057097,24.056138 91.703185,39.579566"
         style="stroke:#000000" />
      <path
         id="path19751"
         d="M 91.703185,39.579566 113.410905,13.501812"
         style="stroke:#000000" />
      <path
         id="path19753"
         d="M 151.046187,48.096993 157.440260,35.616435"
         style="stroke:#000000" />
      <path
         id="path19755"
         d="M 148.329777,50.160824 151.046187,48.096993"
         style="stroke:#000000" />
      <path
         id="path19757"
         d="M 91.703185,39.579566 96.010067,47.544253"
         style="stroke:#000000" />
      <path
         id="path19759"
         d="M 96.010067,47.544253 110.034829,63.716033"
         style="stroke:#000000" />
      <path
         id="path19761"
         d="M 110.034829,63.716033 148.329777,50.160824"
         style="stroke:#000000" />
      <path
         id="path19763"
         d="M 148.329777,50.160824 150.673252,86.745889"
         style="stroke:#000000" />
      <path
         id="path19765"
         d="M 150.673252,86.745889 158.623987,90.370848"
         style="stroke:#000000" />
      <path
         id="path19767"
         d="M 157.440260,35.616435 239.965403,48.735519"
         style="stroke:#000000" />
      <path
         id="path19769"
         d="M 221.183602,0.000000 239.965403,48.735519"
         style="stroke:#000000" />
      <path
         id="path19771"
         d="M 239.965403,48.735519 240.327058,49.169958"
         style="stroke:#000000" />
      <path
         id="path19773"
         d="M 240.327058,49.169958 269.361860,21.527102"
         style="stroke:#000000" />
      <path
         id="path19775"
         d="M 158.623987,90.370848 184.462021,87.462972"
         style="stroke:#000000" />
      <path
         id="path19777"
         d="M 151.046187,48.096993 184.462021,87.462972"
         style="stroke:#000000" />
      <path
         id="path19779"
         d="M 109.950969,95.529169 110.034829,63.716033"
         style="stroke:#000000" />
      <path
         id="path19781"
         d="M 109.950969,95.529169 150.673252,86.745889"
         style="stroke:#000000" />
      <path
         id="path19783"
         d="M 240.327058,49.169958 244.045408,65.211767"
         style="stroke:#000000" />
      <path
         id="path19785"
         d="M 184.462021,87.462972 213.976228,97.234327"
         style="stroke:#000000" />
      <path
         id="path19787"
         d="M 213.976228,97.234327 244.045408,65.211767"
         style="stroke:#000000" />
      <path
         id="path19789"
         d="M 145.011134,128.050297 158.623987,90.370848"
         style="stroke:#000000" />
      <path
         id="path19791"
         d="M 102.996641,115.567768 109.950969,95.529169"
         style="stroke:#000000" />
      <path
         id="path19793"
         d="M 102.996641,115.567768 145.011134,128.050297"
         style="stroke:#000000" />
      <path
         id="path19795"
         d="M 206.788499,121.964819 213.976228,97.234327"
         style="stroke:#000000" />
      <path
         id="path19797"
         d="M 206.788499,121.964819 234.304458,143.043583"
         style="stroke:#000000" />
      <path
         id="path19799"
         d="M 145.011134,128.050297 165.423666,141.099835"
         style="stroke:#000000" />
      <path
         id="path19801"
         d="M 234.304458,143.043583 278.797648,148.297372"
         style="stroke:#000000" />
      <path
         id="path19803"
         d="M 165.423666,141.099835 187.872435,143.318829"
         style="stroke:#000000" />
      <path
         id="path19805"
         d="M 187.872435,143.318829 206.788499,121.964819"
         style="stroke:#000000" />
      <path
         id="path19807"
         d="M 234.304458,143.043583 243.627702,174.108501"
         style="stroke:#000000" />
      <path
         id="path19809"
         d="M 243.627702,174.108501 278.797648,148.297372"
         style="stroke:#000000" />
      <path
         id="path19811"
         d="M 68.565448,139.427460 102.996641,115.567768"
         style="stroke:#000000" />
      <path
         id="path19813"
         d="M 30.496113,131.707709 68.565448,139.427460"
         style="stroke:#000000" />
      <path
         id="path19815"
         d="M 17.216679,127.888998 96.010067,47.544253"
         style="stroke:#000000" />
      <path
         id="path19817"
         d="M 17.216679,127.888998 30.496113,131.707709"
         style="stroke:#000000" />
      <path
         id="path19819"
         d="M 124.964431,182.372812 165.423666,141.099835"
         style="stroke:#000000" />
      <path
         id="path19821"
         d="M 0.000000,112.664305 50.057097,24.056138"
         style="stroke:#000000" />
      <path
         id="path19823"
         d="M 0.000000,124.602476 17.216679,127.888998"
         style="stroke:#000000" />
      <path
         id="path19825"
         d="M 115.976638,185.565516 124.964431,182.372812"
         style="stroke:#000000" />
      <path
         id="path19827"
         d="M 115.976638,185.565516 130.176749,203.933740"
         style="stroke:#000000" />
      <path
         id="path19829"
         d="M 68.565448,139.427460 95.839662,183.198279"
         style="stroke:#000000" />
      <path
         id="path19831"
         d="M 95.839662,183.198279 115.976638,185.565516"
         style="stroke:#000000" />
      <path
         id="path19833"
         d="M 130.176749,203.933740 157.363801,215.089384"
         style="stroke:#000000" />
      <path
         id="path19835"
         d="M 130.176749,203.933740 133.510877,228.051322"
         style="stroke:#000000" />
      <path
         id="path19837"
         d="M 133.510877,228.051322 157.363801,215.089384"
         style="stroke:#000000" />
      <path
         id="path19839"
         d="M 124.964431,182.372812 195.800503,198.683403"
         style="stroke:#000000" />
      <path
         id="path19841"
         d="M 187.872435,143.318829 195.800503,198.683403"
         style="stroke:#000000" />
      <path
         id="path19843"
         d="M 132.512607,232.342294 133.510877,228.051322"
         style="stroke:#000000" />
      <path
         id="path19845"
         d="M 278.797648,148.297372 296.974700,145.126347"
         style="stroke:#000000" />
      <path
         id="path19847"
         d="M 244.045408,65.211767 296.974700,90.251769"
         style="stroke:#000000" />
      <path
         id="path19849"
         d="M 84.827229,222.646477 95.839662,183.198279"
         style="stroke:#000000" />
      <path
         id="path19851"
         d="M 84.827229,222.646477 132.512607,232.342294"
         style="stroke:#000000" />
      <path
         id="path19853"
         d="M 233.377823,220.556200 243.627702,174.108501"
         style="stroke:#000000" />
      <path
         id="path19855"
         d="M 157.363801,215.089384 205.746333,220.476664"
         style="stroke:#000000" />
      <path
         id="path19857"
         d="M 195.800503,198.683403 205.746333,220.476664"
         style="stroke:#000000" />
      <path
         id="path19859"
         d="M 233.377823,220.556200 296.974700,188.930600"
         style="stroke:#000000" />
      <path
         id="path19861"
         d="M 225.895401,227.663536 233.377823,220.556200"
         style="stroke:#000000" />
      <path
         id="path19863"
         d="M 205.746333,220.476664 212.087652,229.031693"
         style="stroke:#000000" />
      <path
         id="path19865"
         d="M 212.087652,229.031693 225.895401,227.663536"
         style="stroke:#000000" />
      <path
         id="path19867"
         d="M 69.206177,250.454920 84.827229,222.646477"
         style="stroke:#000000" />
      <path
         id="path19869"
         d="M 30.496113,131.707709 59.056561,254.077751"
         style="stroke:#000000" />
      <path
         id="path19871"
         d="M 59.056561,254.077751 69.206177,250.454920"
         style="stroke:#000000" />
      <path
         id="path19873"
         d="M 53.062277,256.999805 59.056561,254.077751"
         style="stroke:#000000" />
      <path
         id="path19875"
         d="M 0.000000,181.422597 37.997655,260.730532"
         style="stroke:#000000" />
      <path
         id="path19877"
         d="M 37.997655,260.730532 53.062277,256.999805"
         style="stroke:#000000" />
      <path
         id="path19879"
         d="M 53.062277,256.999805 79.349560,307.607417"
         style="stroke:#000000" />
      <path
         id="path19881"
         d="M 184.655738,271.036960 212.087652,229.031693"
         style="stroke:#000000" />
      <path
         id="path19883"
         d="M 225.895401,227.663536 292.986205,280.296729"
         style="stroke:#000000" />
      <path
         id="path19885"
         d="M 132.512607,232.342294 156.305280,282.022679"
         style="stroke:#000000" />
      <path
         id="path19887"
         d="M 156.305280,282.022679 184.655738,271.036960"
         style="stroke:#000000" />
      <path
         id="path19889"
         d="M 16.752534,280.506560 37.997655,260.730532"
         style="stroke:#000000" />
      <path
         id="path19891"
         d="M 77.083774,326.897203 79.349560,307.607417"
         style="stroke:#000000" />
      <path
         id="path19893"
         d="M 79.349560,307.607417 142.419109,292.733765"
         style="stroke:#000000" />
      <path
         id="path19895"
         d="M 69.206177,250.454920 144.324336,290.758815"
         style="stroke:#000000" />
      <path
         id="path19897"
         d="M 144.324336,290.758815 156.305280,282.022679"
         style="stroke:#000000" />
      <path
         id="path19899"
         d="M 142.419109,292.733765 144.201849,291.142757"
         style="stroke:#000000" />
      <path
         id="path19901"
         d="M 144.201849,291.142757 144.324336,290.758815"
         style="stroke:#000000" />
      <path
         id="path19903"
         d="M 70.107951,330.672997 77.083774,326.897203"
         style="stroke:#000000" />
      <path
         id="path19905"
         d="M 77.083774,326.897203 105.350476,330.325986"
         style="stroke:#000000" />
      <path
         id="path19907"
         d="M 105.350476,330.325986 111.880871,327.591059"
         style="stroke:#000000" />
      <path
         id="path19909"
         d="M 111.880871,327.591059 142.419109,292.733765"
         style="stroke:#000000" />
      <path
         id="path19911"
         d="M 144.201849,291.142757 152.850440,320.481228"
         style="stroke:#000000" />
      <path
         id="path19913"
         d="M 16.752534,280.506560 29.462793,322.179929"
         style="stroke:#000000" />
      <path
         id="path19915"
         d="M 250.678925,325.170298 292.986205,280.296729"
         style="stroke:#000000" />
      <path
         id="path19917"
         d="M 111.880871,327.591059 119.875956,352.328221"
         style="stroke:#000000" />
      <path
         id="path19919"
         d="M 29.462793,322.179929 33.367231,326.702410"
         style="stroke:#000000" />
      <path
         id="path19921"
         d="M 33.367231,326.702410 70.107951,330.672997"
         style="stroke:#000000" />
      <path
         id="path19923"
         d="M 119.875956,352.328221 130.883282,356.115101"
         style="stroke:#000000" />
      <path
         id="path19925"
         d="M 130.883282,356.115101 152.850440,320.481228"
         style="stroke:#000000" />
      <path
         id="path19927"
         d="M 152.850440,320.481228 165.072881,345.941095"
         style="stroke:#000000" />
      <path
         id="path19929"
         d="M 184.655738,271.036960 229.407105,330.419294"
         style="stroke:#000000" />
      <path
         id="path19931"
         d="M 229.407105,330.419294 250.678925,325.170298"
         style="stroke:#000000" />
      <path
         id="path19933"
         d="M 92.564136,360.653214 105.350476,330.325986"
         style="stroke:#000000" />
      <path
         id="path19935"
         d="M 130.883282,356.115101 137.170768,364.948092"
         style="stroke:#000000" />
      <path
         id="path19937"
         d="M 137.170768,364.948092 165.072881,345.941095"
         style="stroke:#000000" />
      <path
         id="path19939"
         d="M 165.072881,345.941095 170.820890,351.573232"
         style="stroke:#000000" />
      <path
         id="path19941"
         d="M 70.107951,330.672997 78.160293,360.536715"
         style="stroke:#000000" />
      <path
         id="path19943"
         d="M 78.160293,360.536715 92.564136,360.653214"
         style="stroke:#000000" />
      <path
         id="path19945"
         d="M 250.678925,325.170298 283.366997,356.869339"
         style="stroke:#000000" />
      <path
         id="path19947"
         d="M 283.366997,356.869339 296.974700,345.909559"
         style="stroke:#000000" />
      <path
         id="path19949"
         d="M 292.986205,280.296729 296.974700,280.337079"
         style="stroke:#000000" />
      <path
         id="path19951"
         d="M 92.564136,360.653214 107.081632,374.537777"
         style="stroke:#000000" />
      <path
         id="path19953"
         d="M 107.081632,374.537777 119.875956,352.328221"
         style="stroke:#000000" />
      <path
         id="path19955"
         d="M 170.820890,351.573232 204.524219,372.599558"
         style="stroke:#000000" />
      <path
         id="path19957"
         d="M 204.524219,372.599558 211.838920,370.880453"
         style="stroke:#000000" />
      <path
         id="path19959"
         d="M 211.838920,370.880453 229.407105,330.419294"
         style="stroke:#000000" />
      <path
         id="path19961"
         d="M 132.227715,396.001227 137.170768,364.948092"
         style="stroke:#000000" />
      <path
         id="path19963"
         d="M 132.227715,396.001227 170.820890,351.573232"
         style="stroke:#000000" />
      <path
         id="path19965"
         d="M 33.367231,326.702410 41.261312,387.546912"
         style="stroke:#000000" />
      <path
         id="path19967"
         d="M 41.261312,387.546912 46.834176,389.491902"
         style="stroke:#000000" />
      <path
         id="path19969"
         d="M 46.834176,389.491902 78.160293,360.536715"
         style="stroke:#000000" />
      <path
         id="path19971"
         d="M 107.081632,374.537777 114.759712,396.540658"
         style="stroke:#000000" />
      <path
         id="path19973"
         d="M 46.834176,389.491902 58.874832,401.045967"
         style="stroke:#000000" />
      <path
         id="path19975"
         d="M 58.874832,401.045967 114.759712,396.540658"
         style="stroke:#000000" />
      <path
         id="path19977"
         d="M 58.874832,401.045967 59.313321,403.797528"
         style="stroke:#000000" />
      <path
         id="path19979"
         d="M 57.175086,424.636150 59.313321,403.797528"
         style="stroke:#000000" />
      <path
         id="path19981"
         d="M 114.759712,396.540658 129.124473,405.157278"
         style="stroke:#000000" />
      <path
         id="path19983"
         d="M 129.124473,405.157278 132.227715,396.001227"
         style="stroke:#000000" />
      <path
         id="path19985"
         d="M 0.000000,401.608131 41.261312,387.546912"
         style="stroke:#000000" />
      <path
         id="path19987"
         d="M 0.000000,410.594650 42.314161,441.727216"
         style="stroke:#000000" />
      <path
         id="path19989"
         d="M 42.314161,441.727216 44.853397,440.980830"
         style="stroke:#000000" />
      <path
         id="path19991"
         d="M 44.853397,440.980830 57.175086,424.636150"
         style="stroke:#000000" />
      <path
         id="path19993"
         d="M 211.838920,370.880453 254.403358,410.046362"
         style="stroke:#000000" />
      <path
         id="path19995"
         d="M 254.403358,410.046362 287.659012,407.682480"
         style="stroke:#000000" />
      <path
         id="path19997"
         d="M 283.366997,356.869339 287.659012,407.682480"
         style="stroke:#000000" />
      <path
         id="path19999"
         d="M 247.094543,421.365055 254.403358,410.046362"
         style="stroke:#000000" />
      <path
         id="path20001"
         d="M 160.242070,421.289773 204.524219,372.599558"
         style="stroke:#000000" />
      <path
         id="path20003"
         d="M 129.124473,405.157278 138.750229,419.392302"
         style="stroke:#000000" />
      <path
         id="path20005"
         d="M 138.750229,419.392302 160.242070,421.289773"
         style="stroke:#000000" />
      <path
         id="path20007"
         d="M 227.916801,442.108019 247.094543,421.365055"
         style="stroke:#000000" />
      <path
         id="path20009"
         d="M 160.242070,421.289773 175.951903,439.837086"
         style="stroke:#000000" />
      <path
         id="path20011"
         d="M 175.951903,439.837086 227.916801,442.108019"
         style="stroke:#000000" />
      <path
         id="path20013"
         d="M 57.175086,424.636150 78.583144,455.893596"
         style="stroke:#000000" />
      <path
         id="path20015"
         d="M 247.094543,421.365055 262.393932,468.437082"
         style="stroke:#000000" />
      <path
         id="path20017"
         d="M 262.393932,468.437082 279.345746,467.571973"
         style="stroke:#000000" />
      <path
         id="path20019"
         d="M 44.853397,440.980830 60.233213,467.484068"
         style="stroke:#000000" />
      <path
         id="path20021"
         d="M 60.233213,467.484068 78.583144,455.893596"
         style="stroke:#000000" />
      <path
         id="path20023"
         d="M 279.345746,467.571973 296.974700,451.892942"
         style="stroke:#000000" />
      <path
         id="path20025"
         d="M 287.659012,407.682480 296.974700,411.634937"
         style="stroke:#000000" />
      <path
         id="path20027"
         d="M 0.000000,451.861929 15.311114,465.074126"
         style="stroke:#000000" />
      <path
         id="path20029"
         d="M 15.311114,465.074126 42.314161,441.727216"
         style="stroke:#000000" />
      <path
         id="path20031"
         d="M 59.313321,403.797528 111.853780,454.575076"
         style="stroke:#000000" />
      <path
         id="path20033"
         d="M 111.853780,454.575076 138.750229,419.392302"
         style="stroke:#000000" />
      <path
         id="path20035"
         d="M 78.583144,455.893596 111.497216,455.359988"
         style="stroke:#000000" />
      <path
         id="path20037"
         d="M 111.497216,455.359988 111.853780,454.575076"
         style="stroke:#000000" />
      <path
         id="path20039"
         d="M 175.951903,439.837086 177.943034,471.847096"
         style="stroke:#000000" />
      <path
         id="path20041"
         d="M 111.497216,455.359988 112.621488,462.646673"
         style="stroke:#000000" />
      <path
         id="path20043"
         d="M 0.000000,15.263043 44.256893,5.223228"
         style="stroke:#000000" />
      <path
         id="path20045"
         d="M 0.000000,345.909559 29.462793,322.179929"
         style="stroke:#000000" />
      <path
         id="path20047"
         d="M 50.034102,483.453434 60.233213,467.484068"
         style="stroke:#000000" />
      <path
         id="path20049"
         d="M 177.943034,471.847096 229.775023,482.672266"
         style="stroke:#000000" />
      <path
         id="path20051"
         d="M 227.916801,442.108019 229.775023,482.672266"
         style="stroke:#000000" />
      <path
         id="path20053"
         d="M 238.196820,487.501200 262.393932,468.437082"
         style="stroke:#000000" />
      <path
         id="path20055"
         d="M 229.775023,482.672266 231.916647,486.614072"
         style="stroke:#000000" />
      <path
         id="path20057"
         d="M 231.916647,486.614072 238.196820,487.501200"
         style="stroke:#000000" />
      <path
         id="path20059"
         d="M 112.621488,462.646673 169.272311,490.024159"
         style="stroke:#000000" />
      <path
         id="path20061"
         d="M 169.272311,490.024159 177.943034,471.847096"
         style="stroke:#000000" />
      <path
         id="path20063"
         d="M 50.034102,483.453434 106.553654,495.080501"
         style="stroke:#000000" />
      <path
         id="path20065"
         d="M 106.553654,495.080501 112.621488,462.646673"
         style="stroke:#000000" />
      <path
         id="path20067"
         d="M 106.553654,495.080501 107.305763,499.940801"
         style="stroke:#000000" />
      <path
         id="path20069"
         d="M 15.311114,465.074126 31.307181,496.464551"
         style="stroke:#000000" />
      <path
         id="path20071"
         d="M 31.307181,496.464551 50.034102,483.453434"
         style="stroke:#000000" />
      <path
         id="path20073"
         d="M 238.196820,487.501200 274.204778,508.915317"
         style="stroke:#000000" />
      <path
         id="path20075"
         d="M 274.204778,508.915317 279.345746,467.571973"
         style="stroke:#000000" />
      <path
         id="path20077"
         d="M 107.305763,499.940801 111.945253,509.018848"
         style="stroke:#000000" />
      <path
         id="path20079"
         d="M 52.905216,517.232669 107.305763,499.940801"
         style="stroke:#000000" />
      <path
         id="path20081"
         d="M 28.898750,507.821445 31.307181,496.464551"
         style="stroke:#000000" />
      <path
         id="path20083"
         d="M 28.898750,507.821445 52.905216,517.232669"
         style="stroke:#000000" />
      <path
         id="path20085"
         d="M 111.945253,509.018848 168.878277,516.195157"
         style="stroke:#000000" />
      <path
         id="path20087"
         d="M 168.878277,516.195157 169.272311,490.024159"
         style="stroke:#000000" />
      <path
         id="path20089"
         d="M 52.905216,517.232669 75.159180,538.836742"
         style="stroke:#000000" />
      <path
         id="path20091"
         d="M 105.319291,532.449517 111.945253,509.018848"
         style="stroke:#000000" />
      <path
         id="path20093"
         d="M 75.159180,538.836742 104.023907,533.286872"
         style="stroke:#000000" />
      <path
         id="path20095"
         d="M 104.023907,533.286872 105.319291,532.449517"
         style="stroke:#000000" />
      <path
         id="path20097"
         d="M 274.204778,508.915317 286.706553,524.562044"
         style="stroke:#000000" />
      <path
         id="path20099"
         d="M 286.706553,524.562044 291.291738,526.123738"
         style="stroke:#000000" />
      <path
         id="path20101"
         d="M 12.672811,524.726365 28.898750,507.821445"
         style="stroke:#000000" />
      <path
         id="path20103"
         d="M 94.996445,563.553850 104.023907,533.286872"
         style="stroke:#000000" />
      <path
         id="path20105"
         d="M 168.878277,516.195157 184.156967,538.801752"
         style="stroke:#000000" />
      <path
         id="path20107"
         d="M 184.156967,538.801752 200.192637,541.414708"
         style="stroke:#000000" />
      <path
         id="path20109"
         d="M 200.192637,541.414708 231.916647,486.614072"
         style="stroke:#000000" />
      <path
         id="path20111"
         d="M 64.596466,569.678198 75.159180,538.836742"
         style="stroke:#000000" />
      <path
         id="path20113"
         d="M 64.596466,569.678198 94.996445,563.553850"
         style="stroke:#000000" />
      <path
         id="path20115"
         d="M 200.192637,541.414708 214.598674,553.639266"
         style="stroke:#000000" />
      <path
         id="path20117"
         d="M 214.598674,553.639266 286.706553,524.562044"
         style="stroke:#000000" />
      <path
         id="path20119"
         d="M 105.319291,532.449517 142.214573,570.726010"
         style="stroke:#000000" />
      <path
         id="path20121"
         d="M 148.887908,570.726010 184.156967,538.801752"
         style="stroke:#000000" />
      <path
         id="path20123"
         d="M 12.672811,524.726365 33.078781,570.726010"
         style="stroke:#000000" />
      <path
         id="path20125"
         d="M 63.677112,570.726010 64.596466,569.678198"
         style="stroke:#000000" />
      <path
         id="path20127"
         d="M 94.996445,563.553850 101.384741,570.726010"
         style="stroke:#000000" />
      <path
         id="path20129"
         d="M 214.598674,553.639266 221.183602,570.726010"
         style="stroke:#000000" />
      <path
         id="path20131"
         d="M 276.500696,570.726010 291.291738,526.123738"
         style="stroke:#000000" />
      <path
         id="path20133"
         d="M 291.291738,526.123738 296.974700,525.691110"
         style="stroke:#000000" />
      <path
         id="path20135"
         d="M 43.846823,0.000000 44.367398,3.027515"
         style="stroke:#000000" />
      <path
         id="path20137"
         d="M 0.000000,280.337079 16.752534,280.506560"
         style="stroke:#000000" />
      <path
         id="path20139"
         d="M 0.000000,525.691110 12.672811,524.726365"
         style="stroke:#000000" />
      <path
         id="path20141"
         d="M 269.361860,21.527102 296.974700,15.263043"
         style="stroke:#000000" />
      <path
         id="path20143"
         d="M 269.361860,21.527102 276.500696,0.000000"
         style="stroke:#000000" />
    </pattern>
  </defs>
  <metadata
     id="metadata7">
    <rdf:RDF>
      <cc:Work
         rdf:about="">
        <dc:format>image/svg+xml</dc:format>
        <dc:type
           rdf:resource="http://purl.org/dc/dcmitype/StillImage" />
        <dc:title />
      </cc:Work>
    </rdf:RDF>
  </metadata>
  <g
     inkscape:label="Ebene 1"
     inkscape:groupmode="layer"
     id="layer1"
     transform="translate(0,1073.622)">
    <g
       transform="translate(-715.50823,-19.232861)"
       id="g3202">
      <path
         id="path3027"
         d="m 754.04055,-1012.639 54.23031,0 0,-10.63 52.75985,0 0,10.63 54.42519,0 0,-10.63 52.75984,0 0,10.63 54.42516,0 0,-10.63 52.7599,0 0,10.63 54.2303,0"
         style="fill:none;stroke:#000000"
         inkscape:label="part"
         inkscape:connector-curvature="0" />
      <path
         id="path3029"
         d="m 1129.6311,-1012.639 0,54.72634 -10.6299,0 0,53.53937 10.6299,0 0,65.16142 -10.6299,0 0,53.53937 10.6299,0 0,65.16142 -10.6299,0 0,53.53937 10.6299,0 0,65.16142 -10.6299,0 0,53.53937 10.6299,0 0,65.16141 -10.6299,0 0,53.53937 10.6299,0 0,54.72638"
         style="fill:none;stroke:#000000"
         inkscape:label="part"
         inkscape:connector-curvature="0" />
      <path
         id="path3031"
         d="m 1129.6311,-374.84376 -54.2303,0 0,10.62992 -52.7599,0 0,-10.62992 -54.42516,0 0,10.62992 -52.75984,0 0,-10.62992 -54.42519,0 0,10.62992 -52.75985,0 0,-10.62992 -54.23031,0"
         style="fill:none;stroke:#000000"
         inkscape:label="part"
         inkscape:connector-curvature="0" />
      <path
         id="path3033"
         d="m 754.04055,-374.84376 0,-54.72638 10.62992,0 0,-53.53937 -10.62992,0 0,-65.16141 10.62992,0 0,-53.53937 -10.62992,0 0,-65.16142 10.62992,0 0,-53.53937 -10.62992,0 0,-65.16142 10.62992,0 0,-53.53937 -10.62992,0 0,-65.16142 10.62992,0 0,-53.53937 -10.62992,0 0,-54.72634"
         style="fill:none;stroke:#000000"
         inkscape:label="part"
         inkscape:connector-curvature="0" />
    </g>
    <path
       style="stroke-linejoin:miter;stroke-opacity:1.0;fill-opacity:1.0;stroke:#000000;stroke-linecap:butt;stroke-width:1.0px;fill:none"
       d=""
       id="path3358" />
    <g
       id="g22327"
       transform="translate(-730.95865,-1155.9797)"
       style="stroke:#008000">
      <path
         inkscape:connector-curvature="0"
         id="line3583"
         d="m 802.78571,143.878 0,52.9375 9.59375,-0.5313 20.15625,-52.4062 -29.75,0 z m 36.28125,0 -20.90625,54.3125 19,14.75 44.3125,-21.2187 7.28125,-15.2188 -15.3125,-32.625 -34.375,0 z m 41.09375,0 13.96875,29.8125 39.09375,4.125 23.1875,-33.9375 -76.25,0 z m 83.625,0 -25.46875,37.3125 17.96875,31.0937 33.875,0.875 18.74999,-25.9374 -15.96874,-43.3438 -29.15625,0 z m 35.6875,0 15.03129,40.9375 30.7812,2.625 26.2812,-21.75 2.6563,-21.8125 -74.74999,0 z m 80.90629,0 -2.7188,22.0938 33.875,27.25 3.8125,-3.2188 0,-46.125 -34.9687,0 z m -5.9376,27.375 -24.5312,20.1875 19.5312,47.3437 39.6563,-28.125 -0.5313,-12 -34.125,-27.4062 z m -180.49994,8.5312 -6.875,14.3126 24.46875,62.5624 9.28125,-0.4374 30.03125,-41.1563 -18,-31.1563 -38.90625,-4.125 z m 119.84374,11.0626 -18.56249,25.7812 17.59369,40.7812 46.9688,4.3126 5.0938,-18.0313 -20.7188,-50.25 -30.375,-2.5937 z m 101.5625,7.1562 -0.6563,0.5625 0.5,12.0937 0.1563,0.125 0,-12.7812 z m -233.21874,0.1875 -42.03125,20.0937 3.53125,26.8126 41.375,26 20.71875,-12.5313 -23.59375,-60.375 z m -68.59375,4.125 -10.75,0.625 0,67.7813 34.75,-25.25 -3.625,-27.375 -20.375,-15.7813 z m 298.53119,13.6875 -41.3124,29.375 -5.4376,19.0938 4.8438,7.3437 42.6875,10.8125 2.5,-1.4375 0,-62.5 -3.2813,-2.6875 z m -156.06244,2.375 -29.46875,40.4062 24.3125,21.8126 45.1875,-7.875 11.12499,-12.9688 -17.46874,-40.5 -33.6875,-0.875 z m -115.09375,32.1875 -38.125,27.7187 0,23.7188 62.34375,20.5938 3.90625,-3.2188 12.375,-43.3438 -40.5,-25.4687 z m 80.40625,11.75 -10.90625,0.5313 -22.875,13.7812 -12.09375,42.4688 59.46875,19.4062 11.21875,-11.7812 0.71875,-41.5 -25.53125,-22.9063 z m 90.68754,1.125 -11.125,13.0313 10.0937,59.0937 15.25,14.5937 21.3437,-17.375 17.375,-57.8124 -4.5937,-7.0626 -48.3437,-4.4687 z m 58.375,14.6563 -16.3438,54.2187 61.1562,13.7813 0.1563,-0.125 0,-25.75 -4.7813,-31.9063 -40.1874,-10.2187 z m -75.21879,1 -42.25,7.3124 -0.6875,38.9376 52.18749,8.0312 -9.24999,-54.2812 z m -192.375,29.3124 0,65.5 11.625,3.0313 42.5,-23.0313 5.34375,-25.8437 -59.46875,-19.6563 z m 69.5625,16.125 -3.8125,3.1563 -5.6875,27.5937 27.90625,42.7188 12.15625,2.7188 32.90625,-14.0626 -2.96875,-42.4687 -60.5,-19.6563 z m 77.90625,6.6876 -11.40625,11.875 3.09375,43.5624 33.5625,16.4376 46.06244,-32.125 1.3126,-15.5313 -16.1563,-15.5313 -56.46874,-8.6874 z m 100.75004,6.6874 -22.0626,17.8438 -1.3437,15.6875 43.5937,40.25 31.7813,-15.5937 9.5,-44.3438 -61.4687,-13.8438 z m -192.40629,22.0313 -40.0625,21.7187 19.8125,56.2188 46.46875,-37.75 -26.21875,-40.1875 z m 256.74999,7.4063 -6.1875,29.125 6.1875,2.875 0,-32 z m -91.1875,9.2187 -45.21874,31.5937 3.625,49.4063 18.78124,7.9375 63,-23.3438 3.0937,-25.625 -43.2812,-39.9687 z m -221.37499,3.625 0,56.9687 28.875,0.0938 -19.21875,-54.5 -9.65625,-2.5625 z m 136.125,11.7813 -32.3125,13.8124 8.8125,54.7188 54.0625,2.3438 7.03125,-4.7188 -3.65625,-49.5312 -33.9375,-16.625 z m 166.74999,9.625 -32.1875,15.75 -3.1563,26.2812 15.4376,23.3438 29.5937,9.875 0,-70.75 -9.6875,-4.5 z m -215.99999,2.4374 -47.9375,38.9376 2.96875,10.2187 58.28125,15.0313 6.5625,-5.9063 -9,-55.9063 -10.875,-2.375 z m -86.875,39.2188 0,45.3438 28.5625,-6.0313 7.71875,-26.875 -3.4375,-11.9063 -0.59375,-0.375 -32.25,-0.1562 z m 263.12499,4.8125 -60.5312,22.4375 15.1562,34.0312 33.875,11.4063 25.7812,-46.25 -14.2812,-21.625 z m -221.53124,11.3125 -7.34375,25.5 13.59375,30.0938 44.5625,5.2187 5.28125,-46.3125 -56.09375,-14.5 z m 135.59375,3.6875 -7,4.8125 -25.03125,78.4688 18.78125,14.25 11.34375,0.9062 36.74994,-54.7812 -15.84369,-35.625 -19,-8.0313 z m -66.03125,3.4687 -7.21875,6.5313 -5.65625,49.5 17.21875,19.4375 23.9375,2.1875 24.0625,-75.375 -52.34375,-2.2813 z m 171.24994,6.6876 -25.9374,46.625 10.9687,27.5937 11.9375,8.0937 23.3438,-0.7187 8.0937,-5.6875 1.75,-19.9688 0,-45.9062 -30.1563,-10.0312 z m -253.18744,15.4062 -29.21875,6.1875 0,48.2187 25.1875,-0.2187 17.09375,-25.2813 -13.0625,-28.9062 z m 187.50004,22 -35.62504,53.0938 12.90625,7.8437 66.96879,-23.9063 -10.2188,-25.5624 -34.0312,-11.4688 z m -169.46879,10.4375 -17,25.125 21.5625,49.1563 17.1875,1.7187 41,-52 -16.375,-18.625 -46.375,-5.375 z m 68.125,27.0313 -41.21875,52.25 7.78125,10.625 55.0625,14.7187 22.15625,-61.0313 -18.6875,-14.2187 -25.09375,-2.3437 z m -90.5625,0.875 -24.8125,0.1562 0,56.1875 27.96875,3.4375 17.90625,-11.6875 -21.0625,-48.0937 z m 287.74999,6.375 -5.2813,3.7187 5.2813,16.75 0,-20.4687 z m -262.12499,46.0312 -18.78125,12.25 -4.9375,67.4688 20.09375,13.5624 28.0625,-13.0937 2.1875,-67 -8.375,-11.4063 -18.25,-1.7812 z m -50.4375,10.0938 0,68.0312 20.75,0.0625 4.71875,-65 -25.46875,-3.0937 z m 83.03125,6.0624 -2.0625,63.5 25.25,4.4376 33.28125,-46.75 -2.8125,-6.7813 -53.65625,-14.4063 z m 229.53124,20.625 -20.1563,13.5 20.1563,55.0626 0,-68.5626 z m -168.56249,4.75 -32.59375,45.6563 33.25,37.75 27.09375,-20.375 2.8125,-49.0313 -30.5625,-14 z m -144,42.6876 0,53.8437 41.8125,0 1.5625,-39.7187 -20.78125,-14.0938 -22.59375,-0.0312 z m 78.25,1.125 -28.78125,13.4062 -1.59375,39.3125 92,0 1.15625,-8.0313 -35.03125,-39.7812 -27.75,-4.9062 z m 97.25,24 -28.46875,21.4062 -1.03125,7.3125 98.09379,0 -15.5313,-21.2187 -53.06249,-7.5 z m 137.06249,5.6874 -13.0313,23.0313 13.0313,0 0,-23.0313 z"
         style="fill:none;stroke:#008000;stroke-width:0.5430336" />
      <line
         class="fil0 str0"
         x1="983.44043"
         y1="657.06024"
         x2="980.67114"
         y2="704.95428"
         id="line3517-1"
         style="fill:none;stroke:#008000;stroke-width:0.5430336" />
      <line
         class="fil0 str0"
         x1="980.67114"
         y1="704.95428"
         x2="1030.5199"
         y2="712.01349"
         id="line3519-3"
         style="fill:none;stroke:#008000;stroke-width:0.5430336" />
      <line
         class="fil0 str0"
         x1="1030.5199"
         y1="712.01349"
         x2="1036.656"
         y2="675.90283"
         id="line3521-2"
         style="fill:none;stroke:#008000;stroke-width:0.5430336" />
      <line
         class="fil0 str0"
         x1="1036.656"
         y1="675.90283"
         x2="1007.496"
         y2="645.65692"
         id="line3523-5"
         style="fill:none;stroke:#008000;stroke-width:0.5430336" />
      <line
         class="fil0 str0"
         x1="1007.496"
         y1="645.65692"
         x2="983.44043"
         y2="657.06024"
         id="line3525-3"
         style="fill:none;stroke:#008000;stroke-width:0.5430336" />
      <path
         sodipodi:nodetypes="ccccccccccc"
         inkscape:connector-curvature="0"
         d="m 1092.9124,645.87415 22.4034,-15.00818 m -50.9659,-19.09333 28.5625,34.10151 m -9.5027,-84.22181 -19.0598,50.1203 m 39.9659,-50.77197 -20.9061,0.65167 m 31.9061,68.70855 0.6819,-35.76687 -11.6819,-33.59335"
         style="fill:none;stroke:#008000;stroke-width:0.5430336"
         id="line3535-2" />
      <line
         class="fil0 str0"
         x1="1077.545"
         y1="559.80609"
         x2="1067.2822"
         y2="552.85547"
         id="line3553-5"
         style="fill:none;stroke:#008000;stroke-width:0.5430336" />
      <line
         class="fil0 str0"
         x1="1067.2822"
         y1="552.85547"
         x2="1000.7626"
         y2="576.63953"
         id="line3555-3"
         style="fill:none;stroke:#008000;stroke-width:0.5430336" />
      <line
         class="fil0 str0"
         x1="1000.7626"
         y1="576.63953"
         x2="1019.3881"
         y2="612.53296"
         id="line3557-1"
         style="fill:none;stroke:#008000;stroke-width:0.5430336" />
      <line
         class="fil0 str0"
         x1="1019.3881"
         y1="612.53296"
         x2="1058.7025"
         y2="609.49207"
         id="line3559-06"
         style="fill:none;stroke:#008000;stroke-width:0.5430336" />
      <line
         class="fil0 str0"
         x1="1058.7025"
         y1="609.49207"
         x2="1077.545"
         y2="559.80609"
         id="line3561-7"
         style="fill:none;stroke:#008000;stroke-width:0.5430336" />
      <line
         class="fil0 str0"
         x1="1036.2216"
         y1="714.67419"
         x2="1054.4126"
         y2="739.49005"
         id="line3563-5"
         style="fill:none;stroke:#008000;stroke-width:0.5430336" />
      <line
         class="fil0 str0"
         x1="1054.4126"
         y1="739.49005"
         x2="1095.3018"
         y2="739.49005"
         id="line3565-0"
         style="fill:none;stroke:#008000;stroke-width:0.5430336" />
      <line
         class="fil0 str0"
         x1="1095.3018"
         y1="739.49005"
         x2="1110.832"
         y2="712.06769"
         id="line3567-0"
         style="fill:none;stroke:#008000;stroke-width:0.5430336" />
      <line
         class="fil0 str0"
         x1="1110.832"
         y1="712.06769"
         x2="1090.1973"
         y2="655.64844"
         id="line3569-4"
         style="fill:none;stroke:#008000;stroke-width:0.5430336" />
      <line
         class="fil0 str0"
         x1="1090.1973"
         y1="655.64844"
         x2="1042.6836"
         y2="677.04321"
         id="line3571-5"
         style="fill:none;stroke:#008000;stroke-width:0.5430336" />
      <line
         class="fil0 str0"
         x1="1042.6836"
         y1="677.04321"
         x2="1036.2216"
         y2="714.67419"
         id="line3573-4"
         style="fill:none;stroke:#008000;stroke-width:0.5430336" />
      <line
         class="fil0 str0"
         x1="1019.8225"
         y1="618.61469"
         x2="1059.517"
         y2="615.51953"
         id="line3575-9"
         style="fill:none;stroke:#008000;stroke-width:0.5430336" />
      <line
         class="fil0 str0"
         x1="1059.517"
         y1="615.51953"
         x2="1088.2968"
         y2="649.83807"
         id="line3577-5"
         style="fill:none;stroke:#008000;stroke-width:0.5430336" />
      <line
         class="fil0 str0"
         x1="1088.2968"
         y1="649.83807"
         x2="1040.62"
         y2="671.23297"
         id="line3579-6"
         style="fill:none;stroke:#008000;stroke-width:0.5430336" />
      <line
         class="fil0 str0"
         x1="1040.62"
         y1="671.23297"
         x2="1011.6774"
         y2="641.20416"
         id="line3581-4"
         style="fill:none;stroke:#008000;stroke-width:0.5430336" />
      <line
         class="fil0 str0"
         x1="1011.6774"
         y1="641.20416"
         x2="1019.8225"
         y2="618.61469"
         id="line3583-8"
         style="fill:none;stroke:#008000;stroke-width:0.5430336" />
      <path
         d="m 993.97785,576.91914 -15.2635,-9.23272 m 35.11645,47.44453 -19.85295,-38.21181 m 11.36745,61.58726 8.4855,-23.37545 m -33.3019,35.1165 24.8164,-11.74105 m -56.62402,-2.82855 31.80762,14.5696 m -34.90307,-21.98777 3.09545,7.41817 m 19.21269,-68.84531 -22.30814,61.42714 m 33.08852,-60.57326 -10.78038,-0.85388"
         style="fill:none;stroke:#008000;stroke-width:0.53370279"
         id="line3551-3-2"
         inkscape:connector-curvature="0" />
    </g>
  </g>
  <g
     inkscape:label="newlayer"
     inkscape:groupmode="layer"
     id="g3035" />
</svg>
