<?xml version="1.0" encoding="UTF-8" standalone="no"?>
<!-- Created with Inkscape (http://www.inkscape.org/) -->

<svg
   xmlns:dc="http://purl.org/dc/elements/1.1/"
   xmlns:cc="http://creativecommons.org/ns#"
   xmlns:rdf="http://www.w3.org/1999/02/22-rdf-syntax-ns#"
   xmlns:svg="http://www.w3.org/2000/svg"
   xmlns="http://www.w3.org/2000/svg"
   xmlns:sodipodi="http://sodipodi.sourceforge.net/DTD/sodipodi-0.dtd"
   xmlns:inkscape="http://www.inkscape.org/namespaces/inkscape"
   width="3543.3069"
   height="2125.9841"
   id="svg3385"
   version="1.1"
   inkscape:version="0.48.5 r10040"
   sodipodi:docname="eurobox-inlay.svg">
  <defs
     id="defs3387" />
  <sodipodi:namedview
     id="base"
     pagecolor="#ffffff"
     bordercolor="#666666"
     borderopacity="1.0"
     inkscape:pageopacity="0.0"
     inkscape:pageshadow="2"
     inkscape:zoom="0.24748737"
     inkscape:cx="1847.6911"
     inkscape:cy="1008.1118"
     inkscape:document-units="mm"
     inkscape:current-layer="layer1"
     showgrid="false"
     units="mm"
     inkscape:window-width="1515"
     inkscape:window-height="878"
     inkscape:window-x="-8"
     inkscape:window-y="-8"
     inkscape:window-maximized="1" />
  <metadata
     id="metadata3390">
    <rdf:RDF>
      <cc:Work
         rdf:about="">
        <dc:format>image/svg+xml</dc:format>
        <dc:type
           rdf:resource="http://purl.org/dc/dcmitype/StillImage" />
        <dc:title></dc:title>
      </cc:Work>
    </rdf:RDF>
  </metadata>
  <g
     inkscape:label="Ebene 1"
     inkscape:groupmode="layer"
     id="layer1"
     transform="translate(0,1073.622)">
    <path
       style="fill:none;stroke:#ff0000;stroke-width:0.77689254;stroke-miterlimit:4;stroke-opacity:1"
       d="m 1996.4364,-1038.4255 0,530.71877 148.9688,0 0,-274.9063 10.2812,0 0,274.9063 166.875,0 0,-274.9063 10.2813,0 0,274.9063 166.875,0 0,-274.9063 10.3125,0 0,274.9063 166.875,0 0,-274.9063 10.2812,0 0,274.9063 166.875,0 0,-274.9063 10.2813,0 0,274.9063 166.8749,0 0,-274.9063 10.2813,0 0,274.9063 158.9063,0 0,-530.71877 -1203.9688,0 z"
       id="rect3393"
       inkscape:connector-curvature="0" />
    <path
       style="fill:none;stroke:#ff0000;stroke-width:0.98347807;stroke-miterlimit:4;stroke-opacity:1;stroke-dasharray:none"
       d="m 26.91561,-1037.2259 0,530.50001 176.84375,0 0,-276.78125 10.28125,0 0,276.78125 166.875,0 0,-276.78125 10.3125,0 0,276.78125 166.84375,0 0,-276.78125 10.3125,0 0,276.78125 166.875,0 0,-276.78125 10.28125,0 0,276.78125 166.875,0 0,-276.78125 10.28125,0 0,276.78125 166.87494,0 0,-276.78125 10.3126,0 0,276.78125 166.8437,0 0,-276.78125 10.3125,0 0,276.78125 166.875,0 0,-276.78125 10.2812,0 0,276.78125 166.875,0 0,-276.78125 10.2813,0 0,276.78125 166.875,0 0,-276.78125 10.3125,0 0,276.78125 148.5,0 0,-530.50001 -1930.12499,0 z"
       id="rect3393-2"
       inkscape:connector-curvature="0" />
    <path
       style="fill:none;stroke:#008000;stroke-width:0.77689253999999996;stroke-miterlimit:4;stroke-opacity:1"
       d="m 1999.0717,-482.29094 0,530.718817 148.9688,0 0,-274.906297 10.2812,0 0,274.906297 166.875,0 0,-274.906297 10.2813,0 0,274.906297 166.875,0 0,-274.906297 10.3125,0 0,274.906297 166.875,0 0,-274.906297 10.2812,0 0,274.906297 166.875,0 0,-274.906297 10.2813,0 0,274.906297 166.8749,0 0,-274.906297 10.2813,0 0,274.906297 158.9063,0 0,-530.718817 -1203.9688,0 z"
       id="rect3393-3"
       inkscape:connector-curvature="0" />
    <path
       style="fill:none;stroke:#008000;stroke-width:0.98347806999999998;stroke-miterlimit:4;stroke-opacity:1;stroke-dasharray:none"
       d="m 29.55098,-481.09134 0,530.500057 176.8437,0 0,-276.781247 10.2813,0 0,276.781247 166.875,0 0,-276.781247 10.3125,0 0,276.781247 166.8437,0 0,-276.781247 10.3125,0 0,276.781247 166.875,0 0,-276.781247 10.2813,0 0,276.781247 166.875,0 0,-276.781247 10.2812,0 0,276.781247 166.87492,0 0,-276.781247 10.3126,0 0,276.781247 166.8437,0 0,-276.781247 10.3125,0 0,276.781247 166.875,0 0,-276.781247 10.2812,0 0,276.781247 166.875,0 0,-276.781247 10.2813,0 0,276.781247 166.875,0 0,-276.781247 10.3125,0 0,276.781247 148.5,0 0,-530.500057 -1930.12492,0 z"
       id="rect3393-2-3"
       inkscape:connector-curvature="0" />
    <path
       style="fill:none;stroke:#800080;stroke-width:0.77689254;stroke-miterlimit:4;stroke-opacity:1"
       d="m 27.253913,83.394479 0,530.718821 148.968797,0 0,-274.9063 10.2812,0 0,274.9063 166.875,0 0,-274.9063 10.2813,0 0,274.9063 166.875,0 0,-274.9063 10.3125,0 0,274.9063 166.875,0 0,-274.9063 10.2812,0 0,274.9063 166.875,0 0,-274.9063 10.2813,0 0,274.9063 166.87489,0 0,-274.9063 10.2813,0 0,274.9063 158.9063,0 0,-530.718821 -1203.968787,0 z"
       id="rect3393-1"
       inkscape:connector-curvature="0" />
    <path
       style="fill:none;stroke:#800080;stroke-width:0.77689254;stroke-miterlimit:4;stroke-opacity:1"
       d="m 1256.6963,96.058356 0,530.718864 148.9688,0 0,-274.9063 10.2812,0 0,274.9063 166.875,0 0,-274.9063 10.2813,0 0,274.9063 166.875,0 0,-274.9063 10.3125,0 0,274.9063 166.875,0 0,-274.9063 10.2812,0 0,274.9063 166.875,0 0,-274.9063 10.2813,0 0,274.9063 166.8749,0 0,-274.9063 10.2813,0 0,274.9063 158.9063,0 0,-530.718864 -1203.9688,0 z"
       id="rect3393-1-2"
       inkscape:connector-curvature="0" />
  </g>
</svg>
