<?xml version="1.0" encoding="UTF-8" standalone="no"?>
<!-- Created with Inkscape (http://www.inkscape.org/) -->

<svg
   xmlns:dc="http://purl.org/dc/elements/1.1/"
   xmlns:cc="http://creativecommons.org/ns#"
   xmlns:rdf="http://www.w3.org/1999/02/22-rdf-syntax-ns#"
   xmlns:svg="http://www.w3.org/2000/svg"
   xmlns="http://www.w3.org/2000/svg"
   xmlns:sodipodi="http://sodipodi.sourceforge.net/DTD/sodipodi-0.dtd"
   xmlns:inkscape="http://www.inkscape.org/namespaces/inkscape"
   width="210mm"
   height="297mm"
   id="svg3665"
   version="1.1"
   inkscape:version="0.48.5 r10040"
   sodipodi:docname="fablab-stencil.svg">
  <defs
     id="defs3" />
  <sodipodi:namedview
     inkscape:document-units="mm"
     id="base"
     pagecolor="#ffffff"
     bordercolor="#666666"
     borderopacity="1.0"
     inkscape:pageopacity="0.0"
     inkscape:pageshadow="2"
     inkscape:zoom="0.7"
     inkscape:cx="728.88512"
     inkscape:cy="671.28787"
     inkscape:current-layer="layer1"
     showgrid="false"
     inkscape:window-width="1515"
     inkscape:window-height="878"
     inkscape:window-x="-8"
     inkscape:window-y="-8"
     inkscape:window-maximized="1" />
  <metadata
     id="metadata4">
    <rdf:RDF>
      <cc:Work
         rdf:about="">
        <dc:format>image/svg+xml</dc:format>
        <dc:type
           rdf:resource="http://purl.org/dc/dcmitype/StillImage" />
        <dc:title></dc:title>
      </cc:Work>
    </rdf:RDF>
  </metadata>
  <g
     inkscape:label="Layer 1"
     inkscape:groupmode="layer"
     id="layer1">
    <path
       inkscape:connector-curvature="0"
       id="path3689"
       style="font-size:314.65557861px;font-variant:normal;font-weight:normal;font-stretch:normal;writing-mode:lr-tb;fill:none;stroke:#ff0000;font-family:Coolvetica Rg;-inkscape-font-specification:CoolveticaRg-Regular"
       d="m 347.10065,315.01585 0,-141.65646 -24.42882,0 0,-21.50966 24.42882,0 0,-17.36137 c -2e-5,-10.95948 0.97303,-19.10242 2.91917,-24.42883 2.66307,-7.16966 7.3491,-12.982388 14.0581,-17.438179 6.70891,-4.455345 16.10658,-6.683129 28.19302,-6.683358 7.78436,2.29e-4 16.38822,0.922071 25.81159,2.765528 l -4.14829,24.121539 c -5.736,-1.02406 -11.16462,-1.53619 -16.28589,-1.5364 -8.39908,2.1e-4 -14.33983,1.79267 -17.82229,5.37741 -3.48257,3.58514 -5.22383,10.29411 -5.22377,20.1269 l 0,15.05676 31.80356,0 0,21.50966 -31.80356,0 0,141.65646 z" />
    <path
       sodipodi:nodetypes="ccccccsssssccccccccccccccccccccsccsscc"
       inkscape:connector-curvature="0"
       id="path3691"
       style="font-size:314.65557861px;font-variant:normal;font-weight:normal;font-stretch:normal;writing-mode:lr-tb;fill:none;stroke:#ff0000;font-family:Coolvetica Rg;-inkscape-font-specification:CoolveticaRg-Regular"
       d="m 529.04507,242.85779 27.71468,-7.28831 1.07377,51.52346 c 1.17776,6.8114 5.02319,21.67489 8.50586,27.92291 l -28.8844,0 c -2.86808,-5.7359 -4.71177,-12.44486 -5.53105,-20.12689 -10.24282,8.7063 -20.1014,14.85191 -29.57578,18.43685 -9.47459,3.58494 -19.64045,5.37741 -30.49763,5.37741 -17.92476,0 -31.70117,-4.37875 -41.32927,-13.13625 -9.62815,-8.75749 -14.44221,-19.94762 -14.4422,-33.57043 -10e-6,-7.98925 1.81807,-15.28717 5.45424,-21.89376 3.63613,-6.60647 8.39898,-11.90706 14.28855,-15.90179 5.88952,-3.99456 12.52165,-7.01616 19.89644,-9.06478 5.42857,-1.43389 13.62272,-2.81665 24.58247,-4.14829 22.32897,-2.66301 38.76848,-5.83824 49.31857,-9.52571 0.1023,-3.78969 0.15352,-6.19672 0.15364,-7.2211 -1.2e-4,-11.26684 -2.61201,-19.20492 -7.83566,-23.81426 -7.06757,-6.24791 -17.56632,-9.37193 -31.49629,-9.37207 -13.00829,1.4e-4 -22.61081,2.27914 -28.80758,6.837 -6.19688,4.55813 -10.78048,12.62424 -13.75081,24.19837 l -27.04072,-3.68737 c 2.45823,-11.57412 6.50409,-20.92057 12.1376,-28.03938 5.63344,-7.11852 13.77638,-12.59836 24.42882,-16.43953 10.65234,-3.84084 22.99478,-5.76135 37.02734,-5.76151 13.92997,1.6e-4 25.24813,1.63899 33.95454,4.91649 8.70615,3.27782 15.10783,7.4005 19.20505,12.36806 4.09693,4.96785 6.96488,11.24149 8.60386,18.82095 0.92169,4.71176 0.87753,28.87055 0.87769,41.16167 m -0.18336,0.37237 c -10.03796,4.09716 -52.36882,14.90328 -72.4444,17.77116 -11.36946,1.6389 -19.40997,3.48258 -24.12155,5.53105 -4.71169,2.04861 -8.34784,5.04459 -10.90847,8.98797 -2.56071,3.94349 -3.84105,8.32225 -3.84101,13.13626 -4e-5,7.37477 2.79109,13.52039 8.3734,18.43684 5.58222,4.91652 13.75076,7.37476 24.50565,7.37474 10.65232,2e-5 20.1268,-2.33019 28.42348,-6.99063 8.29647,-4.6604 14.39087,-11.03647 18.28321,-19.12824 2.97026,-6.24799 3.95049,-16.22402 3.95049,-28.41288" />
    <path
       style="font-size:314.65557861px;font-variant:normal;font-weight:normal;font-stretch:normal;writing-mode:lr-tb;fill:none;stroke:#ff0000;font-family:Coolvetica Rg;-inkscape-font-specification:CoolveticaRg-Regular"
       d="M 576.65625 89.78125 L 576.65625 315.03125 L 602.3125 315.03125 L 602.3125 305.5625 L 602.15625 305.5625 L 602.15625 239.9375 C 602.0559 237.45664 601.99999 234.90419 602 232.21875 C 601.99995 212.34802 606.40998 197.15513 615.21875 186.65625 C 624.0274 176.15763 634.47604 170.90639 646.5625 170.90625 C 658.54635 170.90639 668.76841 175.98487 677.21875 186.125 C 685.66884 196.26539 689.87487 211.97655 689.875 233.28125 C 689.87487 254.07398 685.46484 269.72003 676.65625 280.21875 C 667.84743 290.71753 657.39878 295.96877 645.3125 295.96875 C 631.05405 295.96877 619.65659 289.37217 611.0625 276.25 L 611.0625 304.875 C 620.88227 314.07986 633.05615 318.71875 647.625 318.71875 C 666.98358 318.71875 683.57849 311.07411 697.40625 295.8125 C 711.23373 280.55091 718.15609 258.93137 718.15625 230.96875 C 718.15609 219.18975 716.49626 208.12648 713.21875 197.78125 C 709.94094 187.43626 705.41197 178.60491 699.625 171.28125 C 693.83774 163.95788 686.46222 158.26478 677.5 154.21875 C 668.53753 150.17306 659.03774 148.15641 649 148.15625 C 630.87035 148.15642 615.98911 155.47811 604.3125 170.125 L 604.3125 89.78125 L 576.65625 89.78125 z "
       id="path3693" />
    <path
       inkscape:connector-curvature="0"
       id="path3695"
       style="font-size:314.65557861px;font-variant:normal;font-weight:normal;font-stretch:normal;writing-mode:lr-tb;fill:none;stroke:#ff0000;font-family:Coolvetica Rg;-inkscape-font-specification:CoolveticaRg-Regular"
       d="m 741.69471,315.01585 0,-225.236846 27.65527,0 0,225.236846 z" />
    <path
       style="font-size:314.65557861px;font-variant:normal;font-weight:normal;font-stretch:normal;writing-mode:lr-tb;fill:none;stroke:#ff0000;font-family:Coolvetica Rg;-inkscape-font-specification:CoolveticaRg-Regular"
       d="M 950.46875 89.78125 L 950.46875 315.03125 L 976.125 315.03125 L 976.125 307.1875 L 976.0625 307.1875 L 976.0625 246.125 L 976.34375 246.125 C 975.99569 241.83337 975.81249 237.21991 975.8125 232.21875 C 975.81246 212.34802 980.22248 197.15513 989.03125 186.65625 C 997.8399 176.15763 1008.2886 170.90639 1020.375 170.90625 C 1032.3589 170.90639 1042.5497 175.98487 1051 186.125 C 1059.4501 196.26539 1063.6874 211.97655 1063.6875 233.28125 C 1063.6874 254.07398 1059.2774 269.72003 1050.4688 280.21875 C 1041.6599 290.71753 1031.2113 295.96877 1019.125 295.96875 C 1004.5318 295.96877 992.94099 289.05798 984.28125 275.3125 L 984.28125 304.3125 C 994.20106 313.89128 1006.5756 318.71875 1021.4375 318.71875 C 1040.7961 318.71875 1057.3909 311.07411 1071.2188 295.8125 C 1085.0463 280.55091 1091.9686 258.93137 1091.9688 230.96875 C 1091.9686 219.18975 1090.3087 208.12648 1087.0312 197.78125 C 1083.7534 187.43626 1079.2245 178.60491 1073.4375 171.28125 C 1067.6502 163.95788 1060.2747 158.26478 1051.3125 154.21875 C 1042.35 150.17306 1032.8502 148.15641 1022.8125 148.15625 C 1004.6828 148.15642 989.80161 155.47811 978.125 170.125 L 978.125 89.78125 L 950.46875 89.78125 z "
       id="path3699" />
    <rect
       style="fill:none;stroke:#008000;stroke-width:0.74472713;stroke-miterlimit:4;stroke-opacity:1;stroke-dasharray:none"
       id="rect3686"
       width="1365.642"
       height="353.80762"
       x="30.454599"
       y="29.039562" />
    <path
       d="m 901.51628,241.54331 27.71468,-7.28831 1.07377,51.52346 c 1.17776,6.8114 5.02319,21.67488 8.50586,27.92291 l -28.8844,0 c -2.86808,-5.7359 -4.71177,-12.44486 -5.53105,-20.12689 -10.24282,8.7063 -20.1014,14.85191 -29.57578,18.43685 -9.47459,3.58494 -19.64045,5.37741 -30.49763,5.37741 -17.92476,0 -31.70117,-4.37875 -41.32927,-13.13625 -9.62815,-8.75749 -14.44221,-19.94762 -14.4422,-33.57043 -10e-6,-7.98925 1.81807,-15.28717 5.45424,-21.89376 3.63613,-6.60647 8.39898,-11.90706 14.28855,-15.90179 5.88952,-3.99456 12.52165,-7.01616 19.89644,-9.06478 5.42857,-1.43389 13.62272,-2.81665 24.58247,-4.14829 22.32897,-2.66301 38.76848,-5.83824 49.31857,-9.52571 0.1023,-3.78969 0.15352,-6.19672 0.15364,-7.2211 -1.2e-4,-11.26684 -2.61201,-19.20492 -7.83566,-23.81426 -7.06757,-6.24791 -17.56632,-9.37193 -31.49629,-9.37207 -13.00829,1.4e-4 -22.61081,2.27914 -28.80758,6.837 -6.19688,4.55813 -10.78048,12.62424 -13.75081,24.19837 l -27.04072,-3.68737 c 2.45823,-11.57412 6.50409,-20.92057 12.1376,-28.03938 5.63344,-7.11852 13.77638,-12.59836 24.42882,-16.43953 10.65234,-3.84084 22.99478,-5.76135 37.02734,-5.76151 13.92997,1.6e-4 25.24813,1.63899 33.95454,4.91649 8.70615,3.27782 15.10783,7.4005 19.20505,12.36806 4.09693,4.96785 6.96488,11.24149 8.60386,18.82095 0.92169,4.71176 0.87753,28.87055 0.87769,41.16167 m -0.18336,0.37237 c -10.03796,4.09716 -52.36882,14.90328 -72.4444,17.77116 -11.36946,1.6389 -19.40997,3.48258 -24.12155,5.53105 -4.71169,2.04861 -8.34784,5.04459 -10.90847,8.98797 -2.56071,3.94349 -3.84105,8.32224 -3.84101,13.13625 -4e-5,7.37478 2.79109,13.52039 8.3734,18.43685 5.58222,4.91652 13.75076,7.37476 24.50565,7.37474 10.65232,2e-5 20.1268,-2.33019 28.42348,-6.99063 8.29647,-4.6604 14.39087,-11.03647 18.28321,-19.12824 2.97026,-6.24799 3.95049,-16.22402 3.95049,-28.41288"
       style="font-size:314.65557861px;font-variant:normal;font-weight:normal;font-stretch:normal;writing-mode:lr-tb;fill:none;stroke:#ff0000;font-family:Coolvetica Rg;-inkscape-font-specification:CoolveticaRg-Regular"
       id="path3691-0"
       inkscape:connector-curvature="0"
       sodipodi:nodetypes="ccccccsssssccccccccccccccccccccsccsscc" />
  </g>
</svg>
