<?xml version="1.0" encoding="UTF-8" standalone="no"?>
<!-- Created with Inkscape (http://www.inkscape.org/) -->

<svg
   xmlns:dc="http://purl.org/dc/elements/1.1/"
   xmlns:cc="http://creativecommons.org/ns#"
   xmlns:rdf="http://www.w3.org/1999/02/22-rdf-syntax-ns#"
   xmlns:svg="http://www.w3.org/2000/svg"
   xmlns="http://www.w3.org/2000/svg"
   xmlns:sodipodi="http://sodipodi.sourceforge.net/DTD/sodipodi-0.dtd"
   xmlns:inkscape="http://www.inkscape.org/namespaces/inkscape"
   width="210mm"
   height="297mm"
   id="svg2"
   version="1.1"
   inkscape:version="0.48.5 r10040"
   sodipodi:docname="Grill-o-mat.svg">
  <defs
     id="defs4" />
  <sodipodi:namedview
     id="base"
     pagecolor="#ffffff"
     bordercolor="#666666"
     borderopacity="1.0"
     inkscape:pageopacity="0.0"
     inkscape:pageshadow="2"
     inkscape:zoom="0.98994949"
     inkscape:cx="460.91189"
     inkscape:cy="734.93111"
     inkscape:document-units="px"
     inkscape:current-layer="layer1"
     showgrid="false"
     inkscape:window-width="1515"
     inkscape:window-height="878"
     inkscape:window-x="-8"
     inkscape:window-y="-8"
     inkscape:window-maximized="1" />
  <metadata
     id="metadata7">
    <rdf:RDF>
      <cc:Work
         rdf:about="">
        <dc:format>image/svg+xml</dc:format>
        <dc:type
           rdf:resource="http://purl.org/dc/dcmitype/StillImage" />
        <dc:title />
      </cc:Work>
    </rdf:RDF>
  </metadata>
  <g
     inkscape:label="Ebene 1"
     inkscape:groupmode="layer"
     id="layer1">
    <path
       style="fill:none;stroke:#008000;stroke-width:2.23840213;stroke-miterlimit:4;stroke-opacity:1;stroke-dasharray:none"
       d="m 18.262058,16.178609 0,494.435271 388.644582,0 0,712.05772 212.59842,0 0,-712.05772 388.64454,0 0,-494.435271 z"
       id="rect4429-5"
       inkscape:connector-curvature="0"
       sodipodi:nodetypes="ccccccccc" />
    <g
       id="g3050"
       transform="translate(79.150717,-584.35881)">
      <path
         transform="matrix(0,-0.19508086,0.16602626,0,102.16762,1070.3995)"
         d="m 270.72087,1785.5627 c 0,26.221 -18.09042,47.4772 -40.4061,47.4772 -22.31567,0 -40.4061,-21.2562 -40.4061,-47.4772 0,-26.2209 18.09043,-47.4771 40.4061,-47.4771 22.31568,0 40.4061,21.2562 40.4061,47.4771 z"
         sodipodi:ry="47.477169"
         sodipodi:rx="40.406101"
         sodipodi:cy="1785.5627"
         sodipodi:cx="230.31477"
         id="path3715-3-3-0"
         style="fill:none;stroke:#ff0000;stroke-width:16.66961288;stroke-miterlimit:4;stroke-opacity:1;stroke-dasharray:none"
         sodipodi:type="arc" />
      <path
         transform="matrix(0,-0.19508086,0.16602626,0,-269.87968,698.35227)"
         d="m 270.72087,1785.5627 c 0,26.221 -18.09042,47.4772 -40.4061,47.4772 -22.31567,0 -40.4061,-21.2562 -40.4061,-47.4772 0,-26.2209 18.09043,-47.4771 40.4061,-47.4771 22.31568,0 40.4061,21.2562 40.4061,47.4771 z"
         sodipodi:ry="47.477169"
         sodipodi:rx="40.406101"
         sodipodi:cy="1785.5627"
         sodipodi:cx="230.31477"
         id="path3715-4-43-2-5"
         style="fill:none;stroke:#ff0000;stroke-width:16.66961288;stroke-miterlimit:4;stroke-opacity:1;stroke-dasharray:none"
         sodipodi:type="arc" />
      <path
         transform="matrix(0,-0.19508086,0.16602626,0,102.16762,698.35227)"
         d="m 270.72087,1785.5627 c 0,26.221 -18.09042,47.4772 -40.4061,47.4772 -22.31567,0 -40.4061,-21.2562 -40.4061,-47.4772 0,-26.2209 18.09043,-47.4771 40.4061,-47.4771 22.31568,0 40.4061,21.2562 40.4061,47.4771 z"
         sodipodi:ry="47.477169"
         sodipodi:rx="40.406101"
         sodipodi:cy="1785.5627"
         sodipodi:cx="230.31477"
         id="path3715-4-1-2-5-3"
         style="fill:none;stroke:#ff0000;stroke-width:16.66961288;stroke-miterlimit:4;stroke-opacity:1;stroke-dasharray:none"
         sodipodi:type="arc" />
      <path
         transform="matrix(0,-0.19508086,0.16602626,0,-269.87968,1070.3995)"
         d="m 270.72087,1785.5627 c 0,26.221 -18.09042,47.4772 -40.4061,47.4772 -22.31567,0 -40.4061,-21.2562 -40.4061,-47.4772 0,-26.2209 18.09043,-47.4771 40.4061,-47.4771 22.31568,0 40.4061,21.2562 40.4061,47.4771 z"
         sodipodi:ry="47.477169"
         sodipodi:rx="40.406101"
         sodipodi:cy="1785.5627"
         sodipodi:cx="230.31477"
         id="path3715-4-4-1-3-1"
         style="fill:none;stroke:#ff0000;stroke-width:16.66961288;stroke-miterlimit:4;stroke-opacity:1;stroke-dasharray:none"
         sodipodi:type="arc" />
      <text
         sodipodi:linespacing="125%"
         id="text3934-1"
         y="854.08008"
         x="92.640709"
         style="font-size:40px;font-style:normal;font-weight:normal;line-height:125%;letter-spacing:0px;word-spacing:0px;fill:#000080;fill-opacity:1;stroke:none;font-family:Sans"
         xml:space="preserve"><tspan
           y="854.08008"
           x="92.640709"
           id="tspan3936-74"
           sodipodi:role="line">120mm Lüfter</tspan></text>
    </g>
    <path
       sodipodi:type="arc"
       style="fill:none;stroke:#ff0000;stroke-width:16.66961288;stroke-miterlimit:4;stroke-opacity:1;stroke-dasharray:none"
       id="path3715-3-3-0-7"
       sodipodi:cx="230.31477"
       sodipodi:cy="1785.5627"
       sodipodi:rx="40.406101"
       sodipodi:ry="47.477169"
       d="m 270.72087,1785.5627 a 40.406101,47.477169 0 1 1 -80.8122,0 40.406101,47.477169 0 1 1 80.8122,0 z"
       transform="matrix(0,-0.19508086,0.16602626,0,624.23173,486.04069)" />
    <path
       sodipodi:type="arc"
       style="fill:none;stroke:#ff0000;stroke-width:16.66961288;stroke-miterlimit:4;stroke-opacity:1;stroke-dasharray:none"
       id="path3715-4-43-2-5-1"
       sodipodi:cx="230.31477"
       sodipodi:cy="1785.5627"
       sodipodi:rx="40.406101"
       sodipodi:ry="47.477169"
       d="m 270.72087,1785.5627 a 40.406101,47.477169 0 1 1 -80.8122,0 40.406101,47.477169 0 1 1 80.8122,0 z"
       transform="matrix(0,-0.19508086,0.16602626,0,252.18443,113.99346)" />
    <path
       sodipodi:type="arc"
       style="fill:none;stroke:#ff0000;stroke-width:16.66961288;stroke-miterlimit:4;stroke-opacity:1;stroke-dasharray:none"
       id="path3715-4-1-2-5-3-1"
       sodipodi:cx="230.31477"
       sodipodi:cy="1785.5627"
       sodipodi:rx="40.406101"
       sodipodi:ry="47.477169"
       d="m 270.72087,1785.5627 a 40.406101,47.477169 0 1 1 -80.8122,0 40.406101,47.477169 0 1 1 80.8122,0 z"
       transform="matrix(0,-0.19508086,0.16602626,0,624.23173,113.99346)" />
    <path
       sodipodi:type="arc"
       style="fill:none;stroke:#ff0000;stroke-width:16.66961288;stroke-miterlimit:4;stroke-opacity:1;stroke-dasharray:none"
       id="path3715-4-4-1-3-1-5"
       sodipodi:cx="230.31477"
       sodipodi:cy="1785.5627"
       sodipodi:rx="40.406101"
       sodipodi:ry="47.477169"
       d="m 270.72087,1785.5627 a 40.406101,47.477169 0 1 1 -80.8122,0 40.406101,47.477169 0 1 1 80.8122,0 z"
       transform="matrix(0,-0.19508086,0.16602626,0,252.18443,486.04069)" />
    <text
       xml:space="preserve"
       style="font-size:40px;font-style:normal;font-weight:normal;line-height:125%;letter-spacing:0px;word-spacing:0px;fill:#000080;fill-opacity:1;stroke:none;font-family:Sans"
       x="614.70483"
       y="269.72128"
       id="text3934-1-2"
       sodipodi:linespacing="125%"><tspan
         sodipodi:role="line"
         id="tspan3936-74-7"
         x="614.70483"
         y="269.72128">120mm Lüfter</tspan></text>
    <rect
       style="fill:none;stroke:#800080;stroke-width:1;stroke-miterlimit:4;stroke-opacity:1;stroke-dasharray:none"
       id="rect2999"
       width="386.88843"
       height="37.375645"
       x="96.469566"
       y="90.696945" />
    <rect
       style="fill:none;stroke:#800080;stroke-width:1;stroke-miterlimit:4;stroke-opacity:1;stroke-dasharray:none"
       id="rect2999-0"
       width="386.88843"
       height="37.375645"
       x="96.469566"
       y="149.1848" />
    <rect
       style="fill:none;stroke:#800080;stroke-width:1;stroke-miterlimit:4;stroke-opacity:1;stroke-dasharray:none"
       id="rect2999-0-9"
       width="386.88843"
       height="37.375645"
       x="96.469566"
       y="207.67259" />
    <rect
       style="fill:none;stroke:#800080;stroke-width:1;stroke-miterlimit:4;stroke-opacity:1;stroke-dasharray:none"
       id="rect2999-0-9-4"
       width="386.88843"
       height="37.375645"
       x="96.469566"
       y="266.16049" />
    <rect
       style="fill:none;stroke:#800080;stroke-width:1;stroke-miterlimit:4;stroke-opacity:1;stroke-dasharray:none"
       id="rect2999-0-9-4-8"
       width="386.88843"
       height="37.375645"
       x="96.469566"
       y="324.64835" />
    <rect
       style="fill:none;stroke:#800080;stroke-width:1;stroke-miterlimit:4;stroke-opacity:1;stroke-dasharray:none"
       id="rect2999-0-9-4-8-8"
       width="386.88843"
       height="37.375645"
       x="96.469566"
       y="383.13614" />
    <rect
       style="fill:none;stroke:#800080;stroke-width:1;stroke-miterlimit:4;stroke-opacity:1;stroke-dasharray:none"
       id="rect2999-2"
       width="386.88843"
       height="37.375645"
       x="539.92651"
       y="91.454552" />
    <rect
       style="fill:none;stroke:#800080;stroke-width:1;stroke-miterlimit:4;stroke-opacity:1;stroke-dasharray:none"
       id="rect2999-0-4"
       width="386.88843"
       height="37.375645"
       x="539.92651"
       y="149.9424" />
    <rect
       style="fill:none;stroke:#800080;stroke-width:1;stroke-miterlimit:4;stroke-opacity:1;stroke-dasharray:none"
       id="rect2999-0-9-5"
       width="386.88843"
       height="37.375645"
       x="539.92651"
       y="208.43019" />
    <rect
       style="fill:none;stroke:#800080;stroke-width:1;stroke-miterlimit:4;stroke-opacity:1;stroke-dasharray:none"
       id="rect2999-0-9-4-5"
       width="386.88843"
       height="37.375645"
       x="539.92651"
       y="266.91809" />
    <rect
       style="fill:none;stroke:#800080;stroke-width:1;stroke-miterlimit:4;stroke-opacity:1;stroke-dasharray:none"
       id="rect2999-0-9-4-8-1"
       width="386.88843"
       height="37.375645"
       x="539.92651"
       y="325.40594" />
    <rect
       style="fill:none;stroke:#800080;stroke-width:1;stroke-miterlimit:4;stroke-opacity:1;stroke-dasharray:none"
       id="rect2999-0-9-4-8-8-7"
       width="386.88843"
       height="37.375645"
       x="539.92651"
       y="383.89377" />
  </g>
</svg>
