<?xml version="1.0" encoding="UTF-8" standalone="no"?>
<!-- Created with Inkscape (http://www.inkscape.org/) -->

<svg
   xmlns:dc="http://purl.org/dc/elements/1.1/"
   xmlns:cc="http://creativecommons.org/ns#"
   xmlns:rdf="http://www.w3.org/1999/02/22-rdf-syntax-ns#"
   xmlns:svg="http://www.w3.org/2000/svg"
   xmlns="http://www.w3.org/2000/svg"
   xmlns:sodipodi="http://sodipodi.sourceforge.net/DTD/sodipodi-0.dtd"
   xmlns:inkscape="http://www.inkscape.org/namespaces/inkscape"
   width="3543.3069"
   height="2125.9841"
   id="svg2"
   version="1.1"
   inkscape:version="0.48.5 r10040"
   sodipodi:docname="Neues Dokument 1">
  <sodipodi:namedview
     id="base"
     pagecolor="#ffffff"
     bordercolor="#666666"
     borderopacity="1.0"
     inkscape:pageopacity="0.0"
     inkscape:pageshadow="2"
     inkscape:zoom="0.24748737"
     inkscape:cx="2071.4452"
     inkscape:cy="1146.7493"
     inkscape:document-units="mm"
     inkscape:current-layer="svg2"
     showgrid="false"
     inkscape:window-width="1515"
     inkscape:window-height="878"
     inkscape:window-x="-8"
     inkscape:window-y="-8"
     inkscape:window-maximized="1"
     units="mm" />
  <defs
     id="defs4" />
  <metadata
     id="metadata7">
    <rdf:RDF>
      <cc:Work
         rdf:about="">
        <dc:format>image/svg+xml</dc:format>
        <dc:type
           rdf:resource="http://purl.org/dc/dcmitype/StillImage" />
        <dc:title></dc:title>
      </cc:Work>
    </rdf:RDF>
  </metadata>
  <g
     transform="translate(0,1073.622)"
     inkscape:label="Ebene 1"
     inkscape:groupmode="layer"
     id="layer1" />
  <g
     transform="translate(0,1073.622)"
     inkscape:label="newlayer"
     inkscape:groupmode="layer"
     id="g3162" />
  <g
     transform="translate(0,1073.622)"
     id="g3270"
     inkscape:groupmode="layer"
     inkscape:label="newlayer" />
  <g
     transform="translate(0,1073.622)"
     inkscape:label="newlayer"
     inkscape:groupmode="layer"
     id="g3681" />
  <g
     id="g3769"
     inkscape:groupmode="layer"
     inkscape:label="newlayer" />
  <path
     id="path3771"
     d="m 51.743532,1455.7255 73.241518,0 0,-14.1732 70.47638,0 0,14.1732 73.4364,0 0,-14.1732 70.47638,0 0,14.1732 73.4364,0 0,-14.1732 70.47638,0 0,14.1732 73.4364,0 0,-14.1732 70.47638,0 0,14.1732 73.4364,0 0,-14.1732 70.47638,0 0,14.1732 73.4364,0 0,-14.1732 70.47638,0 0,14.1732 73.4364,0 0,-14.1732 70.47637,0 0,14.1732 73.4364,0 0,-14.1732 70.4764,0 0,14.1732 73.4364,0 0,-14.1732 70.4764,0 0,14.1732 73.4364,0 0,-14.1732 70.4764,0 0,14.1732 73.4364,0 0,-14.1732 70.4763,0 0,14.1732 73.4364,0 0,-14.1732 70.4764,0 0,14.1732 73.2415,0"
     style="fill:none;stroke:#000000"
     inkscape:label="part"
     inkscape:connector-curvature="0" />
  <path
     id="path3773"
     d="m 1851.7435,1455.7255 0,62.1674 -14.1732,0 0,71.2559 14.1732,0 0,76.1456 -14.1732,0 0,71.2559 14.1732,0 0,76.1457 -14.1732,0 0,71.2559 14.1732,0 0,76.1457 -14.1732,0 0,71.2559 14.1732,0 0,62.1673"
     style="fill:none;stroke:#000000"
     inkscape:label="part"
     inkscape:connector-curvature="0" />
  <path
     id="path3775"
     d="m 1851.7435,2093.5208 -1799.999968,0"
     style="fill:none;stroke:#000000"
     inkscape:label="part"
     inkscape:connector-curvature="0"
     sodipodi:nodetypes="cc" />
  <path
     id="path3777"
     d="m 51.743532,2093.5208 0,-62.1673 14.173229,0 0,-71.2559 -14.173229,0 0,-76.1457 14.173229,0 0,-71.2559 -14.173229,0 0,-76.1457 14.173229,0 0,-71.2559 -14.173229,0 0,-76.1456 14.173229,0 0,-71.2559 -14.173229,0 0,-62.1674"
     style="fill:none;stroke:#000000"
     inkscape:label="part"
     inkscape:connector-curvature="0" />
  <g
     id="g3850"
     transform="translate(1875.2001,-651.31807)">
    <path
       inkscape:label="part"
       style="fill:none;stroke:#000000"
       d="m 21.259843,694.48819 62.557086,0 0,-14.17323 70.476381,0 0,14.17323 76.92519,0 0,-14.17323 70.47638,0 0,14.17323 76.9252,0 0,-14.17323 70.47638,0 0,14.17323 76.92519,0 0,-14.17323 70.47638,0 0,14.17323 62.55709,0"
       id="path3779"
       inkscape:connector-curvature="0" />
    <path
       inkscape:label="part"
       style="fill:none;stroke:#000000"
       d="m 659.05512,694.48819 0,708.66141"
       id="path3781"
       inkscape:connector-curvature="0"
       sodipodi:nodetypes="cc" />
    <path
       inkscape:label="part"
       style="fill:none;stroke:#000000"
       d="m 659.05512,1403.1496 -62.55709,0 0,14.1732 -70.47638,0 0,-14.1732 -76.92519,0 0,14.1732 -70.47638,0 0,-14.1732 -76.9252,0 0,14.1732 -70.47638,0 0,-14.1732 -76.92519,0 0,14.1732 -70.476381,0 0,-14.1732 -62.557086,0"
       id="path3783"
       inkscape:connector-curvature="0" />
    <path
       inkscape:label="part"
       style="fill:none;stroke:#000000"
       d="m 21.259843,1403.1496 0,-76.7303 -14.1732288,0 0,-70.4764 14.1732288,0 0,-91.0984 -14.1732288,0 0,-70.4764 14.1732288,0 0,-91.0984 -14.1732288,0 0,-70.47639 14.1732288,0 0,-91.09843 -14.1732288,0 0,-70.47638 14.1732288,0 0,-76.73031"
       id="path3785"
       inkscape:connector-curvature="0" />
  </g>
  <path
     id="path3787"
     d="m 51.743532,697.45782 72.851758,0 0,14.17323 71.2559,0 0,-14.17323 72.65688,0 0,14.17323 71.2559,0 0,-14.17323 72.65688,0 0,14.17323 71.2559,0 0,-14.17323 72.65688,0 0,14.17323 71.2559,0 0,-14.17323 72.65688,0 0,14.17323 71.2559,0 0,-14.17323 72.65688,0 0,14.17323 71.25591,0 0,-14.17323 72.65687,0 0,14.17323 71.25593,0 0,-14.17323 72.6568,0 0,14.17323 71.256,0 0,-14.17323 72.6568,0 0,14.17323 71.2559,0 0,-14.17323 72.6569,0 0,14.17323 71.2559,0 0,-14.17323 72.6569,0 0,14.17323 71.2559,0 0,-14.17323 72.6569,0 0,14.17323 71.2559,0 0,-14.17323 72.8517,0"
     style="fill:none;stroke:#000000"
     inkscape:label="part"
     inkscape:connector-curvature="0" />
  <path
     id="path3789"
     d="m 1851.7435,697.45782 0,90.51378 -14.1732,0 0,71.2559 14.1732,0 0,90.3189 -14.1732,0 0,71.2559 14.1732,0 0,90.3189 -14.1732,0 0,71.2559 14.1732,0 0,90.3189 -14.1732,0 0,71.2559 14.1732,0 0,90.5138"
     style="fill:none;stroke:#000000"
     inkscape:label="part"
     inkscape:connector-curvature="0" />
  <path
     id="path3791"
     d="m 1851.7435,1434.4657 -72.8517,0 0,-14.1732 -71.2559,0 0,14.1732 -72.6569,0 0,-14.1732 -71.2559,0 0,14.1732 -72.6569,0 0,-14.1732 -71.2559,0 0,14.1732 -72.6569,0 0,-14.1732 -71.2559,0 0,14.1732 -72.6568,0 0,-14.1732 -71.256,0 0,14.1732 -72.6568,0 0,-14.1732 -71.25593,0 0,14.1732 -72.65687,0 0,-14.1732 -71.25591,0 0,14.1732 -72.65688,0 0,-14.1732 -71.2559,0 0,14.1732 -72.65688,0 0,-14.1732 -71.2559,0 0,14.1732 -72.65688,0 0,-14.1732 -71.2559,0 0,14.1732 -72.65688,0 0,-14.1732 -71.2559,0 0,14.1732 -72.65688,0 0,-14.1732 -71.2559,0 0,14.1732 -72.851758,0"
     style="fill:none;stroke:#000000"
     inkscape:label="part"
     inkscape:connector-curvature="0" />
  <path
     id="path3793"
     d="m 51.743532,1434.4657 0,-90.5138 14.173229,0 0,-71.2559 -14.173229,0 0,-90.3189 14.173229,0 0,-71.2559 -14.173229,0 0,-90.3189 14.173229,0 0,-71.2559 -14.173229,0 0,-90.3189 14.173229,0 0,-71.2559 -14.173229,0 0,-90.51378"
     style="fill:none;stroke:#000000"
     inkscape:label="part"
     inkscape:connector-curvature="0" />
  <g
     id="g3856"
     transform="translate(-1754.4166,172.56028)">
    <path
       inkscape:connector-curvature="0"
       inkscape:label="part"
       style="fill:none;stroke:#000000"
       d="m 3644.432,677.34534 62.5571,0 0,-14.17323 70.4763,0 0,14.17323 76.9252,0 0,-14.17323 70.4764,0 0,14.17323 76.9252,0 0,-14.17323 70.4764,0 0,14.17323 76.9252,0 0,-14.17323 70.4764,0 0,14.17323 62.5571,0"
       id="path3795" />
    <path
       inkscape:connector-curvature="0"
       inkscape:label="part"
       style="fill:none;stroke:#000000"
       d="m 4282.2273,677.34534 0,708.66146"
       id="path3797"
       sodipodi:nodetypes="cc" />
    <path
       inkscape:connector-curvature="0"
       inkscape:label="part"
       style="fill:none;stroke:#000000"
       d="m 4282.2273,1386.0068 -62.5571,0 0,14.1732 -70.4764,0 0,-14.1732 -76.9252,0 0,14.1732 -70.4764,0 0,-14.1732 -76.9252,0 0,14.1732 -70.4764,0 0,-14.1732 -76.9252,0 0,14.1732 -70.4763,0 0,-14.1732 -62.5571,0"
       id="path3799" />
    <path
       inkscape:connector-curvature="0"
       inkscape:label="part"
       style="fill:none;stroke:#000000"
       d="m 3644.432,1386.0068 0,-76.7304 -14.1733,0 0,-70.4763 14.1733,0 0,-91.0985 -14.1733,0 0,-70.4763 14.1733,0 0,-91.09851 -14.1733,0 0,-70.47634 14.1733,0 0,-91.09842 -14.1733,0 0,-70.47638 14.1733,0 0,-76.73031"
       id="path3801" />
  </g>
  <path
     id="path3811"
     d="m 51.743532,38.4027 1799.999968,0"
     style="fill:none;stroke:#000000"
     inkscape:label="part"
     inkscape:connector-curvature="0"
     sodipodi:nodetypes="cc" />
  <path
     id="path3813"
     d="m 1851.7435,38.4027 0,62.16732 -14.1732,0 0,71.25591 14.1732,0 0,76.14567 -14.1732,0 0,71.2559 14.1732,0 0,76.14567 -14.1732,0 0,71.25591 14.1732,0 0,76.14567 -14.1732,0 0,71.2559 14.1732,0 0,62.16733"
     style="fill:none;stroke:#000000"
     inkscape:label="part"
     inkscape:connector-curvature="0" />
  <path
     id="path3815"
     d="m 1851.7435,676.19798 -73.2415,0 0,14.17322 -70.4764,0 0,-14.17322 -73.4364,0 0,14.17322 -70.4763,0 0,-14.17322 -73.4364,0 0,14.17322 -70.4764,0 0,-14.17322 -73.4364,0 0,14.17322 -70.4764,0 0,-14.17322 -73.4364,0 0,14.17322 -70.4764,0 0,-14.17322 -73.4364,0 0,14.17322 -70.47637,0 0,-14.17322 -73.4364,0 0,14.17322 -70.47638,0 0,-14.17322 -73.4364,0 0,14.17322 -70.47638,0 0,-14.17322 -73.4364,0 0,14.17322 -70.47638,0 0,-14.17322 -73.4364,0 0,14.17322 -70.47638,0 0,-14.17322 -73.4364,0 0,14.17322 -70.47638,0 0,-14.17322 -73.4364,0 0,14.17322 -70.47638,0 0,-14.17322 -73.241518,0"
     style="fill:none;stroke:#000000"
     inkscape:label="part"
     inkscape:connector-curvature="0" />
  <path
     id="path3817"
     d="m 51.743532,676.19798 0,-62.16733 14.173229,0 0,-71.2559 -14.173229,0 0,-76.14567 14.173229,0 0,-71.25591 -14.173229,0 0,-76.14567 14.173229,0 0,-71.2559 -14.173229,0 0,-76.14567 14.173229,0 0,-71.25591 -14.173229,0 0,-62.16732"
     style="fill:none;stroke:#000000"
     inkscape:label="part"
     inkscape:connector-curvature="0" />
</svg>
