<?xml version="1.0" encoding="UTF-8" standalone="no"?>
<!-- Created with Inkscape (http://www.inkscape.org/) -->

<svg
   xmlns:dc="http://purl.org/dc/elements/1.1/"
   xmlns:cc="http://creativecommons.org/ns#"
   xmlns:rdf="http://www.w3.org/1999/02/22-rdf-syntax-ns#"
   xmlns:svg="http://www.w3.org/2000/svg"
   xmlns="http://www.w3.org/2000/svg"
   xmlns:sodipodi="http://sodipodi.sourceforge.net/DTD/sodipodi-0.dtd"
   xmlns:inkscape="http://www.inkscape.org/namespaces/inkscape"
   width="3543.3069"
   height="2125.9841"
   id="svg2"
   version="1.1"
   inkscape:version="0.48.5 r10040"
   sodipodi:docname="MultiTel Kiste.svg">
  <sodipodi:namedview
     id="base"
     pagecolor="#ffffff"
     bordercolor="#666666"
     borderopacity="1.0"
     inkscape:pageopacity="0.0"
     inkscape:pageshadow="2"
     inkscape:zoom="0.11313708"
     inkscape:cx="3357.0343"
     inkscape:cy="354.04976"
     inkscape:document-units="px"
     inkscape:current-layer="layer1"
     showgrid="false"
     inkscape:window-width="1515"
     inkscape:window-height="878"
     inkscape:window-x="-8"
     inkscape:window-y="-8"
     inkscape:window-maximized="1"
     units="mm" />
  <defs
     id="defs4" />
  <metadata
     id="metadata7">
    <rdf:RDF>
      <cc:Work
         rdf:about="">
        <dc:format>image/svg+xml</dc:format>
        <dc:type
           rdf:resource="http://purl.org/dc/dcmitype/StillImage" />
        <dc:title />
      </cc:Work>
    </rdf:RDF>
  </metadata>
  <g
     inkscape:label="Ebene 1"
     inkscape:groupmode="layer"
     id="layer1"
     transform="translate(0,1073.622)">
    <g
       id="g3030"
       transform="matrix(0,-1,1,0,1092.5283,965.11577)">
      <path
         inkscape:connector-curvature="0"
         inkscape:label="part"
         style="fill:none;stroke:#000000"
         d="m 1827.6185,-1019.6793 0,78.32482 21.2598,0 0,88.7244 -21.2598,0 0,99.5138 21.2598,0 0,88.7244 -21.2598,0 0,99.5138 21.2598,0 0,88.7244 -21.2598,0 0,99.5138 21.2598,0 0,88.7244 -21.2598,0 0,99.5138 21.2598,0 0,88.724399 -21.2598,0 0,99.5137997 21.2598,0 0,88.7244003 -21.2598,0 0,99.513801 21.2598,0 0,88.7244 -21.2598,0 0,99.5846"
         id="path3969" />
      <path
         inkscape:connector-curvature="0"
         inkscape:label="part"
         style="fill:none;stroke:#000000"
         d="m 1827.6185,376.38372 -85.1103,0 0,-21.2598 -88.4409,0 0,21.2598 -106.4409,0 0,-21.2598 -88.441,0 0,21.2598 -106.4409,0 0,-21.2598 -88.441,0 0,21.2598 -106.4409,0 0,-21.2598 -88.441,0 0,21.2598 -106.37011,0"
         id="path3971" />
      <path
         sodipodi:nodetypes="cccccc"
         inkscape:connector-curvature="0"
         inkscape:label="part"
         style="fill:none;stroke:#000000"
         d="m 963.05149,376.38372 0,-132.0815 771.75651,3.279 -2.0203,-1160.6813 -769.73621,-2.782 0,-103.79722"
         id="path3973" />
      <path
         inkscape:connector-curvature="0"
         inkscape:label="part"
         style="fill:none;stroke:#000000"
         d="m 963.05149,-1019.6793 106.22841,0 0,-21.2598 88.7244,0 0,21.2598 106.1575,0 0,-21.2598 88.7244,0 0,21.2598 106.1575,0 0,-21.2598 88.7244,0 0,21.2598 106.1575,0 0,-21.2598 88.7244,0 0,21.2598 84.9685,0"
         id="path3975" />
    </g>
    <g
       id="g3024"
       transform="translate(-125.71421,-11.428569)">
      <g
         id="g3042"
         transform="matrix(0,-1,1,0,1218.5284,1008.5286)">
        <path
           id="path3977"
           d="m 246.1269,89.342019 0,-106.2283 -21.25981,0 0,-88.724299 21.25981,0 0,-106.1575 -21.25981,0 0,-88.72442 21.25981,0 0,-106.1575 -21.25981,0 0,-88.7244 21.25981,0 0,-106.1575 -21.25981,0 0,-88.7244 21.25981,0 0,-84.9685"
           style="fill:none;stroke:#000000"
           inkscape:label="part"
           inkscape:connector-curvature="0" />
        <path
           id="path3979"
           d="m 246.1269,-775.2248 78.32481,0 0,-21.2599 88.7244,0 0,21.2599 99.51378,0 0,-21.2599 88.72441,0 0,21.2599 99.51378,0 0,-21.2599 88.72441,0 0,21.2599 99.51378,0 0,-21.2599 88.72441,0 0,21.2599 99.51382,0 0,-21.2599 88.7244,0 0,21.2599 99.5138,0 0,-21.2599 88.7244,0 0,21.2599 99.5138,0 0,-21.2599 88.7243,0 0,21.2599 99.5847,0"
           style="fill:none;stroke:#000000"
           inkscape:label="part"
           inkscape:connector-curvature="0" />
        <path
           id="path3981"
           d="m 1642.1899,-775.2248 0,85.1102 -21.2599,0 0,88.441 21.2599,0 0,106.4409 -21.2599,0 0,88.441 21.2599,0 0,106.4409 -21.2599,0 0,88.44092 21.2599,0 0,106.441 -21.2599,0 0,88.440799 21.2599,0 0,106.3701"
           style="fill:none;stroke:#000000"
           inkscape:label="part"
           inkscape:connector-curvature="0" />
        <path
           id="path3983"
           d="m 1642.1898,89.342019 c 0,0 -916.97605,0 -1396.06289,0"
           style="fill:none;stroke:#000000"
           inkscape:label="part"
           inkscape:connector-curvature="0"
           sodipodi:nodetypes="cc" />
      </g>
    </g>
    <g
       id="g3018"
       transform="translate(-267.02016,75.637181)">
      <path
         inkscape:connector-curvature="0"
         inkscape:label="part"
         style="fill:none;stroke:#000000"
         d="m 1866.6954,-1021.1963 99.5846,0 0,-21.2598 88.7245,0 0,21.2598 99.5137,0 0,-21.2598 88.7244,0 0,21.2598 99.5138,0 0,-21.2598 88.7244,0 0,21.2598 99.5138,0 0,-21.2598 88.7244,0 0,21.2598 99.5138,0 0,-21.2598 88.7244,0 0,21.2598 99.5138,0 0,-21.2598 88.7244,0 0,21.2598 99.5138,0 0,-21.2598 88.7244,0 0,21.2598 78.3248,0"
         id="path3985" />
      <path
         inkscape:connector-curvature="0"
         inkscape:label="part"
         style="fill:none;stroke:#000000"
         d="m 3262.7584,-1021.1963 0,78.32481 21.2598,0 0,88.72441 -21.2598,0 0,99.51378 21.2598,0 0,88.7244 -21.2598,0 0,99.51378 21.2598,0 0,88.72441 -21.2598,0 0,99.5138 21.2598,0 0,88.7244 -21.2598,0 0,99.51383 21.2598,0 0,88.7243 -21.2598,0 0,99.5137987 21.2598,0 0,88.7244003 -21.2598,0 0,99.513801 21.2598,0 0,88.7244 -21.2598,0 0,99.5846"
         id="path3987" />
      <path
         inkscape:connector-curvature="0"
         inkscape:label="part"
         style="fill:none;stroke:#000000"
         d="m 3262.7584,374.86662 -78.4666,0 0,-21.2598 -88.4409,0 0,21.2598 -99.7972,0 0,-21.2598 -88.441,0 0,21.2598 -99.7972,0 0,-21.2598 -88.441,0 0,21.2598 -99.7972,0 0,-21.2598 -88.441,0 0,21.2598 -99.7972,0 0,-21.2598 -88.441,0 0,21.2598 -99.7972,0 0,-21.2598 -88.4409,0 0,21.2598 -99.7972,0 0,-21.2598 -88.441,0 0,21.2598 -99.7264,0"
         id="path3989" />
      <path
         inkscape:connector-curvature="0"
         inkscape:label="part"
         style="fill:none;stroke:#000000"
         d="m 1866.6954,374.86662 0,-99.7264 21.2598,0 0,-88.4409 -21.2598,0 0,-99.797301 21.2598,0 0,-88.4409003 -21.2598,0 0,-99.7972987 21.2598,0 0,-88.4408 -21.2598,0 0,-99.79723 21.2598,0 0,-88.441 -21.2598,0 0,-99.7972 21.2598,0 0,-88.44097 -21.2598,0 0,-99.79725 21.2598,0 0,-88.44094 -21.2598,0 0,-99.79725 21.2598,0 0,-88.44094 -21.2598,0 0,-78.46654"
         id="path3991" />
    </g>
    <g
       id="g3012"
       transform="matrix(0,1,-1,0,3534.3714,-4239.624)">
      <path
         inkscape:connector-curvature="0"
         inkscape:label="part"
         style="fill:none;stroke:#000000"
         d="m 3301.4513,-1042.4561 106.3701,0 0,21.2598 88.4409,0 0,-21.2598 106.441,0 0,21.2598 88.4409,0 0,-21.2598 106.4409,0 0,21.2598 88.441,0 0,-21.2598 106.4409,0 0,21.2598 88.441,0 0,-21.2598 85.1102,0"
         id="path3993" />
      <path
         sodipodi:nodetypes="cccccc"
         inkscape:connector-curvature="0"
         inkscape:label="part"
         style="fill:none;stroke:#000000"
         d="m 4166.0182,-1042.4561 0,2.61 21.2599,0 0,1393.69952 -21.2599,0 0,-0.2466"
         id="path3995" />
      <path
         inkscape:connector-curvature="0"
         inkscape:label="part"
         style="fill:none;stroke:#000000"
         d="m 4166.0182,353.60682 -84.9685,0 0,21.2598 -88.7244,0 0,-21.2598 -106.1575,0 0,21.2598 -88.7244,0 0,-21.2598 -106.1575,0 0,21.2598 -88.7244,0 0,-21.2598 -106.1575,0 0,21.2598 -88.7244,0 0,-21.2598 -106.2283,0"
         id="path3997" />
      <path
         inkscape:connector-curvature="0"
         inkscape:label="part"
         style="fill:none;stroke:#000000"
         d="m 3301.4513,353.60682 0,-78.4666 21.2598,0 0,-88.4409 -21.2598,0 0,-99.797301 21.2598,0 0,-88.4409003 -21.2598,0 0,-99.7972987 21.2598,0 0,-88.4408 -21.2598,0 0,-99.79723 21.2598,0 0,-88.441 -21.2598,0 0,-99.7972 21.2598,0 0,-88.44097 -21.2598,0 0,-99.79725 21.2598,0 0,-88.44094 -21.2598,0 0,-99.79725 21.2598,0 0,-88.44094 -21.2598,0 0,-99.72634"
         id="path3999" />
    </g>
    <g
       id="g3036"
       transform="matrix(0,-1,1,0,1078.3364,1049.7495)">
      <path
         sodipodi:nodetypes="cccccccccc"
         inkscape:connector-curvature="0"
         inkscape:label="part"
         style="fill:none;stroke:#000000"
         d="m 925.69651,-1031.3186 0,-0.4154 21.2598,0 0,118.72449 -779.83122,0 0,1169.27603 779.83122,0 0,108.7244 -21.2598,0 0,-0.2466"
         id="path4009" />
      <path
         inkscape:connector-curvature="0"
         inkscape:label="part"
         style="fill:none;stroke:#000000"
         d="m 925.69651,364.74432 -84.9685,0 0,21.2599 -88.7244,0 0,-21.2599 -106.1575,0 0,21.2599 -88.7244,0 0,-21.2599 -106.1575,0 0,21.2599 -88.7244,0 0,-21.2599 -106.1575,0 0,21.2599 -88.72442,0 0,-21.2599 -106.228294,0"
         id="path4011" />
      <path
         inkscape:connector-curvature="0"
         inkscape:label="part"
         style="fill:none;stroke:#000000"
         d="m 61.129596,364.74432 0,-78.4665 21.2598,0 0,-88.4409 -21.2598,0 0,-99.797301 21.2598,0 0,-88.4409003 -21.2598,0 0,-99.7971997 21.2598,0 0,-88.440999 -21.2598,0 0,-99.79722 21.2598,0 0,-88.44095 -21.2598,0 0,-99.79724 21.2598,0 0,-88.44095 -21.2598,0 0,-99.79724 21.2598,0 0,-88.44095 -21.2598,0 0,-99.79724 21.2598,0 0,-88.44095 -21.2598,0 0,-99.72638"
         id="path4013" />
      <path
         inkscape:connector-curvature="0"
         inkscape:label="part"
         style="fill:none;stroke:#000000"
         d="m 61.129596,-1031.3186 106.369994,0 0,21.2598 88.44102,0 0,-21.2598 106.4409,0 0,21.2598 88.441,0 0,-21.2598 106.4409,0 0,21.2598 88.441,0 0,-21.2598 106.4409,0 0,21.2598 88.441,0 0,-21.2598 85.1102,0"
         id="path4015" />
    </g>
  </g>
  <g
     inkscape:label="newlayer"
     inkscape:groupmode="layer"
     id="g3038"
     transform="translate(0,1073.622)" />
  <g
     id="g3146"
     inkscape:groupmode="layer"
     inkscape:label="newlayer"
     transform="translate(0,1073.622)" />
  <g
     inkscape:label="newlayer"
     inkscape:groupmode="layer"
     id="g3256"
     transform="translate(0,1073.622)" />
  <g
     id="g3340"
     inkscape:groupmode="layer"
     inkscape:label="newlayer"
     transform="translate(0,1073.622)" />
  <g
     inkscape:label="newlayer"
     inkscape:groupmode="layer"
     id="g3414"
     transform="translate(0,1073.622)" />
  <g
     id="g3506"
     inkscape:groupmode="layer"
     inkscape:label="newlayer"
     transform="translate(0,1073.622)" />
  <g
     inkscape:label="newlayer"
     inkscape:groupmode="layer"
     id="g3648"
     transform="translate(0,1073.622)" />
  <g
     id="g3780"
     inkscape:groupmode="layer"
     inkscape:label="newlayer"
     transform="translate(0,1073.622)" />
  <g
     inkscape:label="newlayer"
     inkscape:groupmode="layer"
     id="g3902"
     transform="translate(0,1073.622)" />
  <g
     id="g4026"
     inkscape:groupmode="layer"
     inkscape:label="newlayer"
     transform="translate(0,1073.622)" />
</svg>
