<?xml version="1.0" encoding="UTF-8" standalone="no"?>
<!-- Created with Inkscape (http://www.inkscape.org/) -->

<svg
   xmlns:dc="http://purl.org/dc/elements/1.1/"
   xmlns:cc="http://creativecommons.org/ns#"
   xmlns:rdf="http://www.w3.org/1999/02/22-rdf-syntax-ns#"
   xmlns:svg="http://www.w3.org/2000/svg"
   xmlns="http://www.w3.org/2000/svg"
   xmlns:sodipodi="http://sodipodi.sourceforge.net/DTD/sodipodi-0.dtd"
   xmlns:inkscape="http://www.inkscape.org/namespaces/inkscape"
   width="210mm"
   height="297mm"
   id="svg2"
   version="1.1"
   inkscape:version="0.48.5 r10040"
   sodipodi:docname="Neues Dokument 1">
  <sodipodi:namedview
     id="base"
     pagecolor="#ffffff"
     bordercolor="#666666"
     borderopacity="1.0"
     inkscape:pageopacity="0.0"
     inkscape:pageshadow="2"
     inkscape:zoom="0.24748737"
     inkscape:cx="1942.2777"
     inkscape:cy="442.90289"
     inkscape:document-units="px"
     inkscape:current-layer="layer1"
     showgrid="false"
     inkscape:window-width="1515"
     inkscape:window-height="878"
     inkscape:window-x="-8"
     inkscape:window-y="-8"
     inkscape:window-maximized="1" />
  <defs
     id="defs4" />
  <metadata
     id="metadata7">
    <rdf:RDF>
      <cc:Work
         rdf:about="">
        <dc:format>image/svg+xml</dc:format>
        <dc:type
           rdf:resource="http://purl.org/dc/dcmitype/StillImage" />
        <dc:title></dc:title>
      </cc:Work>
    </rdf:RDF>
  </metadata>
  <g
     inkscape:label="Ebene 1"
     inkscape:groupmode="layer"
     id="layer1">
    <path
       id="path3969"
       d="m 1795.2936,38.9606 0,78.3248 21.2598,0 0,88.7244 -21.2598,0 0,99.5138 21.2598,0 0,88.7244 -21.2598,0 0,99.5138 21.2598,0 0,88.7244 -21.2598,0 0,99.5138 21.2598,0 0,88.7244 -21.2598,0 0,99.5138 21.2598,0 0,88.7244 -21.2598,0 0,99.5138 21.2598,0 0,88.7244 -21.2598,0 0,99.5138 21.2598,0 0,88.7244 -21.2598,0 0,99.5846"
       style="fill:none;stroke:#000000"
       inkscape:label="part"
       inkscape:connector-curvature="0" />
    <path
       id="path3971"
       d="m 1795.2936,1435.0236 -85.1103,0 0,-21.2598 -88.4409,0 0,21.2598 -106.4409,0 0,-21.2598 -88.441,0 0,21.2598 -106.4409,0 0,-21.2598 -88.441,0 0,21.2598 -106.4409,0 0,-21.2598 -88.441,0 0,21.2598 -106.37009,0"
       style="fill:none;stroke:#000000"
       inkscape:label="part"
       inkscape:connector-curvature="0" />
    <path
       id="path3973"
       d="m 930.72661,1435.0236 0,-132.0815 771.75649,3.279 -2.0203,-1160.6813 -769.73619,-2.782 0,-103.7972"
       style="fill:none;stroke:#000000"
       inkscape:label="part"
       inkscape:connector-curvature="0"
       sodipodi:nodetypes="cccccc" />
    <path
       id="path3975"
       d="m 930.72661,38.9606 106.22839,0 0,-21.2598 88.7244,0 0,21.2598 106.1575,0 0,-21.2598 88.7244,0 0,21.2598 106.1575,0 0,-21.2598 88.7244,0 0,21.2598 106.1575,0 0,-21.2598 88.7244,0 0,21.2598 84.9685,0"
       style="fill:none;stroke:#000000"
       inkscape:label="part"
       inkscape:connector-curvature="0" />
    <path
       id="path3977"
       d="m 213.80202,1147.9819 0,-106.2283 -21.25981,0 0,-88.7243 21.25981,0 0,-106.1575 -21.25981,0 0,-88.72442 21.25981,0 0,-106.1575 -21.25981,0 0,-88.7244 21.25981,0 0,-106.1575 -21.25981,0 0,-88.7244 21.25981,0 0,-84.9685"
       style="fill:none;stroke:#000000"
       inkscape:label="part"
       inkscape:connector-curvature="0" />
    <path
       id="path3979"
       d="m 213.80202,283.41508 78.32481,0 0,-21.2599 88.7244,0 0,21.2599 99.51378,0 0,-21.2599 88.72441,0 0,21.2599 99.51378,0 0,-21.2599 88.72441,0 0,21.2599 99.51378,0 0,-21.2599 88.72441,0 0,21.2599 99.5138,0 0,-21.2599 88.7244,0 0,21.2599 99.5138,0 0,-21.2599 88.7244,0 0,21.2599 99.5138,0 0,-21.2599 88.7243,0 0,21.2599 99.5847,0"
       style="fill:none;stroke:#000000"
       inkscape:label="part"
       inkscape:connector-curvature="0" />
    <path
       id="path3981"
       d="m 1609.865,283.41508 0,85.1102 -21.2599,0 0,88.441 21.2599,0 0,106.4409 -21.2599,0 0,88.441 21.2599,0 0,106.4409 -21.2599,0 0,88.44092 21.2599,0 0,106.441 -21.2599,0 0,88.4408 21.2599,0 0,106.3701"
       style="fill:none;stroke:#000000"
       inkscape:label="part"
       inkscape:connector-curvature="0" />
    <path
       id="path3983"
       d="m 1609.8649,1147.9819 c 0,0 -916.97603,0 -1396.06287,0"
       style="fill:none;stroke:#000000"
       inkscape:label="part"
       inkscape:connector-curvature="0"
       sodipodi:nodetypes="cc" />
    <path
       id="path3985"
       d="m 1834.3705,37.44358 99.5846,0 0,-21.25984 88.7245,0 0,21.25984 99.5137,0 0,-21.25984 88.7244,0 0,21.25984 99.5138,0 0,-21.25984 88.7244,0 0,21.25984 99.5138,0 0,-21.25984 88.7244,0 0,21.25984 99.5138,0 0,-21.25984 88.7244,0 0,21.25984 99.5138,0 0,-21.25984 88.7244,0 0,21.25984 99.5138,0 0,-21.25984 88.7244,0 0,21.25984 78.3248,0"
       style="fill:none;stroke:#000000"
       inkscape:label="part"
       inkscape:connector-curvature="0" />
    <path
       id="path3987"
       d="m 3230.4335,37.44358 0,78.32481 21.2598,0 0,88.72441 -21.2598,0 0,99.51378 21.2598,0 0,88.7244 -21.2598,0 0,99.51378 21.2598,0 0,88.72441 -21.2598,0 0,99.5138 21.2598,0 0,88.7244 -21.2598,0 0,99.51383 21.2598,0 0,88.7243 -21.2598,0 0,99.5138 21.2598,0 0,88.7244 -21.2598,0 0,99.5138 21.2598,0 0,88.7244 -21.2598,0 0,99.5846"
       style="fill:none;stroke:#000000"
       inkscape:label="part"
       inkscape:connector-curvature="0" />
    <path
       id="path3989"
       d="m 3230.4335,1433.5065 -78.4666,0 0,-21.2598 -88.4409,0 0,21.2598 -99.7972,0 0,-21.2598 -88.441,0 0,21.2598 -99.7972,0 0,-21.2598 -88.441,0 0,21.2598 -99.7972,0 0,-21.2598 -88.441,0 0,21.2598 -99.7972,0 0,-21.2598 -88.441,0 0,21.2598 -99.7972,0 0,-21.2598 -88.4409,0 0,21.2598 -99.7972,0 0,-21.2598 -88.441,0 0,21.2598 -99.7264,0"
       style="fill:none;stroke:#000000"
       inkscape:label="part"
       inkscape:connector-curvature="0" />
    <path
       id="path3991"
       d="m 1834.3705,1433.5065 0,-99.7264 21.2598,0 0,-88.4409 -21.2598,0 0,-99.7973 21.2598,0 0,-88.4409 -21.2598,0 0,-99.7973 21.2598,0 0,-88.4408 -21.2598,0 0,-99.79723 21.2598,0 0,-88.441 -21.2598,0 0,-99.7972 21.2598,0 0,-88.44097 -21.2598,0 0,-99.79725 21.2598,0 0,-88.44094 -21.2598,0 0,-99.79725 21.2598,0 0,-88.44094 -21.2598,0 0,-78.46654"
       style="fill:none;stroke:#000000"
       inkscape:label="part"
       inkscape:connector-curvature="0" />
    <path
       id="path3993"
       d="m 3269.1264,16.18374 106.3701,0 0,21.25984 88.4409,0 0,-21.25984 106.441,0 0,21.25984 88.4409,0 0,-21.25984 106.4409,0 0,21.25984 88.441,0 0,-21.25984 106.4409,0 0,21.25984 88.441,0 0,-21.25984 85.1102,0"
       style="fill:none;stroke:#000000"
       inkscape:label="part"
       inkscape:connector-curvature="0" />
    <path
       id="path3995"
       d="m 4133.6933,16.18374 0,2.61005 21.2599,0 0,1393.69951 -21.2599,0 0,-0.2466"
       style="fill:none;stroke:#000000"
       inkscape:label="part"
       inkscape:connector-curvature="0"
       sodipodi:nodetypes="cccccc" />
    <path
       id="path3997"
       d="m 4133.6933,1412.2467 -84.9685,0 0,21.2598 -88.7244,0 0,-21.2598 -106.1575,0 0,21.2598 -88.7244,0 0,-21.2598 -106.1575,0 0,21.2598 -88.7244,0 0,-21.2598 -106.1575,0 0,21.2598 -88.7244,0 0,-21.2598 -106.2283,0"
       style="fill:none;stroke:#000000"
       inkscape:label="part"
       inkscape:connector-curvature="0" />
    <path
       id="path3999"
       d="m 3269.1264,1412.2467 0,-78.4666 21.2598,0 0,-88.4409 -21.2598,0 0,-99.7973 21.2598,0 0,-88.4409 -21.2598,0 0,-99.7973 21.2598,0 0,-88.4408 -21.2598,0 0,-99.79723 21.2598,0 0,-88.441 -21.2598,0 0,-99.7972 21.2598,0 0,-88.44097 -21.2598,0 0,-99.79725 21.2598,0 0,-88.44094 -21.2598,0 0,-99.79725 21.2598,0 0,-88.44094 -21.2598,0 0,-99.72638"
       style="fill:none;stroke:#000000"
       inkscape:label="part"
       inkscape:connector-curvature="0" />
    <path
       id="path4009"
       d="m 893.37163,27.32128 0,-0.41535 21.2598,0 0,118.72444 -779.83122,0 0,1169.27603 779.83122,0 0,108.7244 -21.2598,0 0,-0.2466"
       style="fill:none;stroke:#000000"
       inkscape:label="part"
       inkscape:connector-curvature="0"
       sodipodi:nodetypes="cccccccccc" />
    <path
       id="path4011"
       d="m 893.37163,1423.3842 -84.9685,0 0,21.2599 -88.7244,0 0,-21.2599 -106.1575,0 0,21.2599 -88.7244,0 0,-21.2599 -106.1575,0 0,21.2599 -88.7244,0 0,-21.2599 -106.1575,0 0,21.2599 -88.72442,0 0,-21.2599 -106.228296,0"
       style="fill:none;stroke:#000000"
       inkscape:label="part"
       inkscape:connector-curvature="0" />
    <path
       id="path4013"
       d="m 28.804714,1423.3842 0,-78.4665 21.2598,0 0,-88.4409 -21.2598,0 0,-99.7973 21.2598,0 0,-88.4409 -21.2598,0 0,-99.7972 21.2598,0 0,-88.441 -21.2598,0 0,-99.79722 21.2598,0 0,-88.44095 -21.2598,0 0,-99.79724 21.2598,0 0,-88.44095 -21.2598,0 0,-99.79724 21.2598,0 0,-88.44095 -21.2598,0 0,-99.79724 21.2598,0 0,-88.44095 -21.2598,0 0,-99.72637"
       style="fill:none;stroke:#000000"
       inkscape:label="part"
       inkscape:connector-curvature="0" />
    <path
       id="path4015"
       d="m 28.804714,27.32129 106.369996,0 0,21.25984 88.44102,0 0,-21.25984 106.4409,0 0,21.25984 88.441,0 0,-21.25984 106.4409,0 0,21.25984 88.441,0 0,-21.25984 106.4409,0 0,21.25984 88.441,0 0,-21.25984 85.1102,0"
       style="fill:none;stroke:#000000"
       inkscape:label="part"
       inkscape:connector-curvature="0" />
  </g>
  <g
     inkscape:label="newlayer"
     inkscape:groupmode="layer"
     id="g3038" />
  <g
     id="g3146"
     inkscape:groupmode="layer"
     inkscape:label="newlayer" />
  <g
     inkscape:label="newlayer"
     inkscape:groupmode="layer"
     id="g3256" />
  <g
     id="g3340"
     inkscape:groupmode="layer"
     inkscape:label="newlayer" />
  <g
     inkscape:label="newlayer"
     inkscape:groupmode="layer"
     id="g3414" />
  <g
     id="g3506"
     inkscape:groupmode="layer"
     inkscape:label="newlayer" />
  <g
     inkscape:label="newlayer"
     inkscape:groupmode="layer"
     id="g3648" />
  <g
     id="g3780"
     inkscape:groupmode="layer"
     inkscape:label="newlayer" />
  <g
     inkscape:label="newlayer"
     inkscape:groupmode="layer"
     id="g3902" />
  <g
     id="g4026"
     inkscape:groupmode="layer"
     inkscape:label="newlayer" />
</svg>
