<?xml version="1.0" encoding="UTF-8" standalone="no"?>
<!-- Created with Inkscape (http://www.inkscape.org/) -->

<svg
   xmlns:dc="http://purl.org/dc/elements/1.1/"
   xmlns:cc="http://creativecommons.org/ns#"
   xmlns:rdf="http://www.w3.org/1999/02/22-rdf-syntax-ns#"
   xmlns:svg="http://www.w3.org/2000/svg"
   xmlns="http://www.w3.org/2000/svg"
   xmlns:sodipodi="http://sodipodi.sourceforge.net/DTD/sodipodi-0.dtd"
   xmlns:inkscape="http://www.inkscape.org/namespaces/inkscape"
   width="210mm"
   height="297mm"
   id="svg2"
   version="1.1"
   inkscape:version="0.48.5 r10040"
   sodipodi:docname="Rack-TFT-Halterung.svg">
  <defs
     id="defs4" />
  <sodipodi:namedview
     id="base"
     pagecolor="#ffffff"
     bordercolor="#666666"
     borderopacity="1.0"
     inkscape:pageopacity="0.0"
     inkscape:pageshadow="2"
     inkscape:zoom="0.35"
     inkscape:cx="803.09883"
     inkscape:cy="438.41496"
     inkscape:document-units="px"
     inkscape:current-layer="layer1"
     showgrid="false"
     inkscape:window-width="1515"
     inkscape:window-height="878"
     inkscape:window-x="-8"
     inkscape:window-y="-8"
     inkscape:window-maximized="1" />
  <metadata
     id="metadata7">
    <rdf:RDF>
      <cc:Work
         rdf:about="">
        <dc:format>image/svg+xml</dc:format>
        <dc:type
           rdf:resource="http://purl.org/dc/dcmitype/StillImage" />
        <dc:title></dc:title>
      </cc:Work>
    </rdf:RDF>
  </metadata>
  <g
     inkscape:label="Ebene 1"
     inkscape:groupmode="layer"
     id="layer1">
    <path
       style="fill:none;stroke:#ff0000;stroke-width:2.14495564;stroke-miterlimit:4;stroke-opacity:1"
       d="m 21.072478,21.308624 2052.973122,0 0,282.392146 -211.5259,0 0,354.3307 211.5259,0 0,353.25823 -2052.973122,0 z"
       id="rect2985"
       inkscape:connector-curvature="0"
       sodipodi:nodetypes="ccccccccc" />
    <rect
       style="fill:none;stroke:#800080;stroke-width:2.253263;stroke-miterlimit:4;stroke-opacity:1;stroke-dasharray:none"
       id="rect2987"
       width="1078.4553"
       height="812.70734"
       x="508.33136"
       y="115.9567" />
    <path
       sodipodi:type="arc"
       style="fill:none;stroke:#800080;stroke-width:1;stroke-miterlimit:4;stroke-opacity:1;stroke-dasharray:none"
       id="path2989"
       sodipodi:cx="-1192.8572"
       sodipodi:cy="-137.63782"
       sodipodi:rx="78.571426"
       sodipodi:ry="61.42857"
       d="m -1114.2858,-137.63782 a 78.571426,61.42857 0 1 1 -157.1428,0 78.571426,61.42857 0 1 1 157.1428,0 z"
       transform="matrix(0.11174851,0,0,0.14305446,204.66316,118.26829)" />
    <path
       sodipodi:type="arc"
       style="fill:none;stroke:#800080;stroke-width:1;stroke-miterlimit:4;stroke-opacity:1;stroke-dasharray:none"
       id="path2989-4"
       sodipodi:cx="-1192.8572"
       sodipodi:cy="-137.63782"
       sodipodi:rx="78.571426"
       sodipodi:ry="61.42857"
       d="m -1114.2858,-137.63782 a 78.571426,61.42857 0 1 1 -157.1428,0 78.571426,61.42857 0 1 1 157.1428,0 z"
       transform="matrix(0.11174851,0,0,0.14305446,204.66316,952.3349)" />
    <path
       sodipodi:type="arc"
       style="fill:none;stroke:#800080;stroke-width:1;stroke-miterlimit:4;stroke-opacity:1;stroke-dasharray:none"
       id="path2989-8"
       sodipodi:cx="-1192.8572"
       sodipodi:cy="-137.63782"
       sodipodi:rx="78.571426"
       sodipodi:ry="61.42857"
       d="m -1114.2858,-137.63782 a 78.571426,61.42857 0 1 1 -157.1428,0 78.571426,61.42857 0 1 1 157.1428,0 z"
       transform="matrix(0.11174851,0,0,0.14305446,2149.797,118.26825)" />
    <path
       sodipodi:type="arc"
       style="fill:none;stroke:#800080;stroke-width:1;stroke-miterlimit:4;stroke-opacity:1;stroke-dasharray:none"
       id="path2989-4-8"
       sodipodi:cx="-1192.8572"
       sodipodi:cy="-137.63782"
       sodipodi:rx="78.571426"
       sodipodi:ry="61.42857"
       d="m -1114.2858,-137.63782 a 78.571426,61.42857 0 1 1 -157.1428,0 78.571426,61.42857 0 1 1 157.1428,0 z"
       transform="matrix(0.11174851,0,0,0.14305446,2149.797,952.3349)" />
  </g>
</svg>
